<svg width="775" height="266" viewBox="0 0 775 266" fill="none" xmlns="http://www.w3.org/2000/svg">
<path opacity="0.34" d="M71.7224 206.849C55.872 208.308 39.4848 203.144 27.4216 192.744C14.4583 181.569 6.739 164.545 6.8654 147.439C7.50586 147.304 8.16692 147.208 8.80847 147.112C9.877 146.925 10.9667 146.797 12.0368 146.67C13.1075 146.562 14.1983 146.473 15.2707 146.423C15.2902 146.422 15.2902 146.422 15.3097 146.422C16.382 146.372 17.4554 146.362 18.5294 146.371C18.5684 146.37 18.588 146.369 18.627 146.368C19.6815 146.378 20.7175 146.427 21.7736 146.495C21.8321 146.493 21.8912 146.511 21.9497 146.509C22.9668 146.579 23.985 146.687 25.0032 146.795C25.1013 146.812 25.1994 146.828 25.2774 146.826C26.2572 146.955 27.257 147.103 28.2378 147.27C28.3749 147.286 28.493 147.322 28.6301 147.338C29.5719 147.506 30.5142 147.695 31.4376 147.903C31.6143 147.937 31.7915 147.991 31.9682 148.025C32.8525 148.235 33.7374 148.464 34.6034 148.713C34.8397 148.784 35.0564 148.856 35.2922 148.908C36.1191 149.158 36.9461 149.409 37.754 149.679C38.0299 149.769 38.3062 149.878 38.582 149.968C39.351 150.239 40.1005 150.511 40.851 150.822C41.1865 150.949 41.503 151.097 41.8389 151.243C42.5304 151.536 43.2219 151.829 43.914 152.142C44.2895 152.307 44.6662 152.511 45.0417 152.677C45.6747 152.971 46.2882 153.266 46.9027 153.601C47.3384 153.823 47.7551 154.065 48.1719 154.307C48.7268 154.604 49.2623 154.901 49.7983 155.218C50.2947 155.517 50.752 155.816 51.2484 156.115C51.7058 156.414 52.1822 156.694 52.6201 156.994C53.1967 157.368 53.7355 157.783 54.2932 158.177C54.6319 158.421 54.9901 158.665 55.3288 158.909C56.2257 159.568 57.0847 160.266 57.9443 160.984C71.7796 172.623 75.7126 188.288 75.2033 206.361C74.0974 206.607 72.9102 206.738 71.7224 206.849Z" fill="#135C99"/>
<path d="M68.5091 208.52C51.5984 211.161 33.6305 206.022 20.6672 194.846C7.70382 183.671 -0.0154521 166.648 0.111011 149.542C17.8337 145.922 37.4149 151.504 51.2502 163.143C65.0849 174.763 69.0184 190.447 68.5091 208.52Z" fill="#16996D"/>
<path d="M41.7457 172.995C30.7044 162.137 16.9922 153.501 2.05464 149.214C19.2525 146.37 37.9157 151.939 51.2507 163.143C65.086 174.782 69.019 190.447 68.5096 208.52C67.3436 208.709 66.1563 208.84 64.9686 208.952C60.2737 195.358 51.9436 183.018 41.7457 172.995Z" fill="#097C52"/>
<path opacity="0.34" d="M57.3484 242.771C62.0782 243.382 66.5428 244.808 71.3169 245.216C75.45 245.576 78.6547 244.464 82.4563 243.445C84.9317 242.787 87.7387 241.69 90.4351 241.675C95.0324 241.643 99.1875 243.962 103.232 245.184C108.537 246.783 115.433 246.015 120.98 245.388C125.732 244.855 130.44 244.119 135.236 243.79C140.828 243.414 146.375 243.899 151.989 243.915C162.532 243.931 171.373 241.675 180.457 238.008C181.031 237.773 181.938 237.883 182.247 238.337C186.999 245.028 196.304 246.469 206.095 245.545C213.521 244.855 220.55 243.022 227.821 241.847C232.839 241.032 237.148 241.91 242.077 242.756C249.305 243.993 256.62 245.341 264.069 245.639C269.992 245.874 277.75 245.513 279.164 240.531C279.275 240.139 279.894 239.826 280.424 239.841C285.22 239.935 288.934 241.251 293 242.912C297.819 244.887 302.836 245.827 308.405 245.67C319.943 245.357 331.369 246.015 342.907 246.281C348.764 246.422 354.643 246.438 360.478 246.03C365.782 245.654 370.954 244.761 376.17 244.025C380.79 243.367 385.475 242.85 390.183 242.975C395.377 243.116 400.195 244.15 405.168 245.09C409.368 245.874 413.677 246.594 418.054 246.344C423.38 246.03 428.221 244.37 432.818 242.536C433.481 242.27 434.21 242.458 434.63 242.865C435.691 243.931 435.581 245.294 437.879 245.419C438.609 245.466 439.227 245.169 439.913 245.184C441.393 245.184 442.565 245.811 443.692 246.469C451.98 242.207 463.385 242.458 473.132 243.132C478.768 243.523 484.36 244.166 489.952 244.793C495.543 245.419 501.157 246.328 506.793 245.419C512.673 244.464 517.933 242.301 523.613 240.954C525.691 240.468 527.945 239.904 530.155 240.217C532.343 240.531 534.2 241.471 536.278 241.972C542.93 243.57 549.804 237.961 556.545 239.763C560.457 240.813 563.33 243.163 567.309 244.213C573.077 245.733 579.708 245.466 585.432 244.056C590.052 242.928 594.295 241.126 598.981 240.061C604.462 238.807 608.905 239.356 614.187 240.797C620.088 242.411 626.365 243.508 632.665 243.758C639.715 244.025 646.633 244.996 653.684 245.169C668.315 245.513 682.637 242.897 697.335 243.288C709.602 243.617 721.647 245.106 733.516 247.206L732.345 46.4428C724.852 45.8474 717.205 45.91 709.756 45.6437C699.766 45.2833 690.152 44.2022 680.095 44.5312C674.106 44.7349 668.116 45.0326 662.127 45.1109C657.662 45.1736 653.242 44.4529 648.777 44.2022C643.914 43.9201 638.853 43.5754 633.991 43.8574C629.04 44.1395 624.222 45.1266 619.249 45.2206C618.63 45.2363 618.21 44.9229 617.967 44.5312C617.591 43.9045 616.972 43.1054 616.309 42.6196C614.209 41.1154 612.706 42.1652 610.872 43.2464C608.065 44.9072 605.479 44.4529 601.921 44.8759C594.273 45.8004 587.355 48.5737 579.553 49.0438C575.332 49.2945 572.702 48.9654 569.674 46.9128C567.707 45.581 565.187 44.3432 562.579 43.7791C559.883 43.1994 556.678 43.6851 554.003 44.0141C548.434 44.6879 542.974 45.863 537.361 46.2548C529.315 46.8345 521.204 46.8658 513.137 46.5525C497.267 45.9571 481.531 44.1395 465.728 43.0427C457.108 42.4473 448.444 42.0399 439.802 42.0712C431.823 42.1026 423.955 42.792 416.02 43.356C408.351 43.9045 400.681 44.1552 393.012 43.4657C389.012 43.1054 385.077 42.3062 381.033 42.8076C378.115 43.168 375.441 44.0768 372.767 44.9386C368.015 46.4584 363.638 47.806 358.688 46.0824C355.505 44.9699 352.389 43.4501 348.874 44.8289C346.753 45.6593 345.029 46.9912 343.106 48.0253C339.812 49.7959 335.259 49.2788 332.099 47.4142C330.729 46.5995 329.955 45.487 328.784 44.5625C326.816 43.0113 323.899 42.4003 321.026 42.2279C314.638 41.8519 308.008 43.0113 301.731 43.7008C295.034 44.4215 288.293 44.4372 281.684 45.5653C277.706 46.2548 273.573 47.1635 269.484 47.3672C266.854 47.5082 264.621 46.7875 262.124 46.3174C260.024 45.9257 258.411 45.7064 256.576 46.5995C255.582 47.0852 254.742 47.7433 253.769 48.276C251.913 49.3258 250.034 49.9839 247.647 50.0936C247.05 50.1249 246.564 49.7802 246.365 49.4042C243.006 42.4473 234.364 47.0225 227.446 47.8686C218.318 48.9968 209.72 44.1552 200.901 46.6621C200.415 46.8032 199.641 46.5681 199.42 46.2391C198.824 45.3303 198.359 44.3745 197.829 43.4501C193.563 44.4685 189.275 45.4713 184.943 46.2861C180.656 47.1009 176.5 47.2575 172.146 47.6963C170.732 47.8373 168.345 48.417 166.864 48.1193C166.024 47.947 165.118 47.2105 164.433 46.8502C160.808 44.9856 156.653 42.886 152.564 45.299C150.177 46.7091 148.011 49.2945 144.651 49.6235C141.425 49.9369 137.601 49.2788 134.352 49.1221C129.909 48.9028 125.511 48.5581 121.091 48.1977C115.123 47.7119 108.426 47.3046 103.409 50.1406C102.481 50.6577 101.287 50.3286 101.155 49.4825C101.022 48.6991 100.624 47.8686 100.027 47.1635C91.054 49.8115 81.6606 45.91 72.422 47.6649C71.8252 47.7746 71.2727 47.5866 70.9411 47.2419C70.3444 46.6465 70.035 45.9414 69.615 45.2833C61.9014 48.511 52.5964 50.8457 44.4629 47.1479L45.5901 243.116C49.3916 242.364 53.3037 242.239 57.3484 242.771Z" fill="#37B6C8"/>
<path d="M57.3051 231.788C62.0349 232.399 66.4995 233.825 71.2735 234.232C75.4066 234.592 78.6114 233.48 82.413 232.461C84.8884 231.803 87.6954 230.706 90.3918 230.691C94.989 230.659 99.1442 232.978 103.189 234.201C108.493 235.799 115.389 235.031 120.937 234.404C125.689 233.872 130.397 233.135 135.193 232.806C140.784 232.43 146.332 232.916 151.946 232.931C162.489 232.947 171.329 230.691 180.413 227.024C181.01 226.789 181.894 226.899 182.226 227.353C186.978 234.044 196.283 235.485 206.074 234.561C213.5 233.872 220.529 232.038 227.8 230.863C232.817 230.048 237.127 230.926 242.056 231.772C249.283 233.01 256.599 234.357 264.048 234.655C269.971 234.89 277.729 234.53 279.143 229.547C279.254 229.155 279.873 228.842 280.403 228.858C285.199 228.952 288.912 230.268 292.979 231.929C297.797 233.903 302.815 234.843 308.384 234.686C319.922 234.373 331.348 235.031 342.886 235.297C348.743 235.438 354.622 235.454 360.457 235.047C365.761 234.671 370.933 233.777 376.149 233.041C380.768 232.383 385.454 231.866 390.162 231.991C395.356 232.132 400.174 233.166 405.147 234.107C409.346 234.89 413.656 235.611 418.032 235.36C423.359 235.047 428.199 233.386 432.797 231.553C433.46 231.286 434.189 231.474 434.609 231.882C435.67 232.947 435.559 234.31 437.858 234.436C438.587 234.483 439.206 234.185 439.891 234.201C441.372 234.201 442.544 234.827 443.671 235.485C451.959 231.224 463.364 231.474 473.111 232.148C478.747 232.54 484.339 233.182 489.93 233.809C495.522 234.436 501.136 235.344 506.772 234.436C512.651 233.48 517.912 231.318 523.592 229.97C525.669 229.484 527.924 228.92 530.134 229.234C532.322 229.547 534.179 230.487 536.256 230.988C542.909 232.587 549.783 226.977 556.524 228.779C560.436 229.829 563.309 232.179 567.288 233.229C573.056 234.749 579.687 234.483 585.411 233.072C590.031 231.944 594.274 230.142 598.96 229.077C604.441 227.823 608.884 228.372 614.166 229.813C620.067 231.427 626.322 232.524 632.643 232.775C639.694 233.041 646.612 234.013 653.662 234.185C668.294 234.53 682.616 231.913 697.314 232.305C709.581 232.634 721.626 234.122 733.495 236.222L732.301 35.459C724.809 34.8636 717.161 34.9263 709.713 34.6599C699.723 34.2996 690.109 33.2184 680.052 33.5475C674.062 33.7512 668.073 34.0489 662.083 34.1272C657.619 34.1899 653.198 33.4691 648.734 33.2184C643.871 32.9364 638.81 32.5917 633.947 32.8737C628.996 33.1557 624.178 34.1429 619.205 34.2369C618.586 34.2526 618.166 33.9392 617.923 33.5475C617.548 32.9207 616.929 32.1216 616.266 31.6359C614.166 30.1317 612.663 31.1815 610.829 32.2626C608.022 33.9235 605.436 33.4691 601.877 33.8922C594.23 34.8166 587.312 37.59 579.51 38.06C575.289 38.3107 572.658 37.9817 569.63 35.9291C567.663 34.5973 565.144 33.3594 562.536 32.7954C559.839 32.2156 556.634 32.7014 553.96 33.0304C548.39 33.7042 542.931 34.8793 537.317 35.271C529.272 35.8508 521.161 35.8821 513.093 35.5687C497.224 34.9733 481.487 33.1557 465.684 32.0589C457.065 31.4635 448.401 31.0561 439.759 31.0875C431.78 31.1188 423.912 31.8082 415.977 32.3723C408.308 32.9207 400.638 33.1714 392.969 32.482C388.968 32.1216 385.034 31.3225 380.989 31.8239C378.072 32.1843 375.398 33.0931 372.723 33.9549C367.971 35.4747 363.595 36.8222 358.644 35.0987C355.462 33.9862 352.345 32.4663 348.831 33.8452C346.709 34.6756 344.985 36.0074 343.062 37.0416C339.769 38.8121 335.216 38.2951 332.056 36.4305C330.685 35.6157 329.912 34.5033 328.74 33.5788C326.773 32.0276 323.856 31.4165 320.982 31.2442C314.595 30.8681 307.964 32.0276 301.687 32.717C294.99 33.4378 288.249 33.4535 281.641 34.5816C277.662 35.271 273.529 36.1798 269.44 36.3835C266.81 36.5245 264.578 35.8038 262.08 35.3337C259.981 34.942 258.367 34.7226 256.533 35.6157C255.538 36.1015 254.698 36.7595 253.726 37.2923C251.825 38.3421 249.946 39.0002 247.559 39.1255C246.963 39.1569 246.476 38.8121 246.277 38.4361C242.918 31.4792 234.276 36.0545 227.358 36.9006C218.23 38.0287 209.632 33.1871 200.814 35.6941C200.327 35.8351 199.554 35.6001 199.333 35.271C198.736 34.3622 198.272 33.4064 197.741 32.482C193.476 33.5005 189.188 34.5033 184.856 35.318C180.568 36.1328 176.413 36.2895 172.059 36.7282C170.644 36.8692 168.257 37.449 166.776 37.1513C165.959 36.9946 165.052 36.2581 164.367 35.8978C160.765 34.0019 156.61 31.9023 152.499 34.3152C150.112 35.7254 147.946 38.3107 144.586 38.6398C141.359 38.9532 137.535 38.2951 134.286 38.1384C129.844 37.919 125.446 37.5743 121.025 37.2139C115.058 36.7282 108.361 36.3208 103.344 39.1569C102.415 39.6739 101.222 39.3449 101.089 38.4988C100.957 37.7153 100.559 36.8849 99.962 36.1798C90.9886 38.8278 81.5952 34.9263 72.3565 36.6812C71.7598 36.7909 71.2072 36.6029 70.8757 36.2581C70.2789 35.6627 69.9695 34.9576 69.5496 34.2996C61.836 37.5116 52.531 39.8463 44.3975 36.1485L45.5247 232.117C49.3483 231.396 53.2604 231.271 57.3051 231.788Z" fill="#00A59B"/>
<path d="M697.269 232.336C709.536 232.665 721.581 234.154 733.45 236.253L733.141 159.461C713.669 183.81 696.252 208.661 677.001 233.151C683.72 232.618 690.462 232.148 697.269 232.336Z" fill="#00A59B"/>
<path d="M579.487 234.075C581.521 233.887 583.51 233.558 585.389 233.088C590.008 231.96 594.251 230.158 598.937 229.093C604.418 227.839 608.861 228.388 614.143 229.829C620.045 231.443 626.299 232.54 632.621 232.79C639.671 233.057 646.589 234.028 653.64 234.201C661.486 234.389 669.244 233.731 677.002 233.119C696.274 208.645 713.669 183.794 733.141 159.43L732.898 95.8305C665.95 132.762 606.01 179.877 579.487 234.075Z" fill="#12645F" fill-opacity="0.17"/>
<path d="M680.052 33.5475C674.062 33.7512 668.073 34.0489 662.083 34.1272C657.619 34.1899 653.198 33.4691 648.733 33.2184C643.871 32.9364 638.81 32.5917 633.947 32.8737C628.996 33.1557 624.178 34.1429 619.205 34.2369C618.586 34.2526 618.166 33.9392 617.923 33.5475C617.547 32.9207 616.929 32.1216 616.266 31.6359C614.166 30.1317 612.663 31.1815 610.828 32.2626C608.132 33.8608 605.612 33.5005 602.253 33.8452C588.461 58.727 571.31 81.4623 548.545 105.185C541.936 113.035 530.93 122.452 537.604 131.837C544.279 141.223 564.127 133.357 572.946 127.074C614.299 94.6396 653.95 63.4746 695.634 33.8765C690.484 33.5945 685.334 33.3751 680.052 33.5475Z" fill="#12645F" fill-opacity="0.17"/>
<path d="M57.3058 231.788C62.0356 232.399 66.5002 233.825 71.2743 234.232C75.4074 234.592 78.6122 233.48 82.4137 232.461C84.8891 231.803 87.6961 230.707 90.3925 230.691C94.9898 230.66 99.1449 232.978 103.19 234.201C108.494 235.799 115.39 235.031 120.938 234.404C125.69 233.872 130.397 233.135 135.193 232.806C140.785 232.43 146.333 232.916 151.947 232.931C162.489 232.947 171.33 230.691 180.414 227.024C181.011 226.789 181.895 226.899 182.227 227.353C186.978 234.044 196.283 235.485 206.075 234.561C213.501 233.872 220.529 232.038 227.801 230.863C232.818 230.048 237.128 230.926 242.057 231.772C247.229 232.665 252.445 233.59 257.727 234.169C281.266 205.934 316.695 181.241 339.682 152.677C346.511 144.168 334.576 134.172 321.735 137.776C321.624 137.807 321.514 137.838 321.403 137.87C252.953 156.813 204.527 208.614 129.403 210.322C118.352 211.904 133.757 191.503 118.285 191.535C89.5527 193.164 71.9594 211.998 47.6914 224.58C47.0283 224.815 46.2769 225.019 45.5254 225.191L45.5475 232.07C49.349 231.396 53.2611 231.271 57.3058 231.788Z" fill="#12645F" fill-opacity="0.17"/>
<path opacity="0.34" d="M680.74 258.078C679.786 234.667 688.62 210.927 704.829 193.951C722.252 175.715 747.873 165.648 773.027 167.101C773.173 168.055 773.261 169.035 773.378 169.988C773.563 171.575 773.691 173.189 773.761 174.773C773.832 176.357 773.873 177.969 773.857 179.55C773.857 179.579 773.857 179.579 773.856 179.608C773.84 181.189 773.796 182.77 773.694 184.349C773.692 184.407 773.692 184.435 773.69 184.493C773.589 186.043 773.459 187.593 773.273 189.112C773.27 189.198 773.239 189.284 773.237 189.37C773.051 190.86 772.837 192.35 772.564 193.867C772.531 194.01 772.527 194.153 772.495 194.268C772.225 195.698 771.954 197.157 771.627 198.586C771.592 198.787 771.529 198.986 771.495 199.158C771.169 200.529 770.815 201.9 770.432 203.241C770.367 203.498 770.274 203.755 770.209 204.012C769.828 205.295 769.447 206.579 769.008 207.861C768.883 208.203 768.76 208.516 768.664 208.858C768.227 210.054 767.791 211.25 767.327 212.416C767.172 212.814 766.988 213.212 766.833 213.61C766.371 214.719 765.909 215.799 765.419 216.878C765.204 217.361 764.961 217.814 764.746 218.297C764.258 219.29 763.799 220.284 763.282 221.276C763.008 221.815 762.705 222.353 762.403 222.891C761.917 223.798 761.432 224.676 760.919 225.553C760.556 226.176 760.166 226.769 759.775 227.362C759.293 228.154 758.811 228.917 758.301 229.679C757.849 230.386 757.342 231.062 756.862 231.739C756.413 232.388 755.962 233.065 755.484 233.713C754.886 234.531 754.231 235.318 753.605 236.106C753.218 236.584 752.829 237.091 752.441 237.597C751.399 238.862 750.3 240.097 749.203 241.274C731.055 260.756 707.686 265.364 681.141 263.267C680.929 261.564 680.805 259.835 680.74 258.078Z" fill="#135C99"/>
<path d="M678.546 253.213C675.941 228.145 684.841 202.077 702.264 183.841C719.687 165.605 745.309 155.538 770.463 156.991C774.441 183.335 764.758 211.711 746.609 231.192C728.459 250.731 705.091 255.339 678.546 253.213Z" fill="#48B059"/>
<path d="M732.815 216.51C749.642 201.076 763.361 181.586 770.814 159.906C773.694 185.413 764.105 212.469 746.609 231.25C728.461 250.731 705.092 255.339 678.547 253.242C678.365 251.511 678.242 249.753 678.176 247.997C698.504 242.067 717.316 230.744 732.815 216.51Z" fill="#168828"/>
<path d="M678.419 252.774C668.796 241.107 664.592 225.12 667.249 210.219C669.906 195.318 679.373 181.779 692.431 174.154C703.164 186.003 707.743 203.404 705.137 219.168C702.549 234.962 692.396 245.024 678.419 252.774Z" fill="#6AD67B"/>
<path d="M693.367 216.409C696.656 203.106 697.045 188.808 693.575 175.495C703.482 187.291 707.669 204 705.157 219.198C702.55 234.962 692.397 245.024 678.43 252.789C677.765 251.984 677.12 251.146 676.504 250.29C684.698 240.576 690.344 228.67 693.367 216.409Z" fill="#23A438"/>
<path d="M78.0341 197.939C74.994 196.519 71.5647 196.162 68.2971 196.925C65.0295 197.688 62.1133 199.528 60.017 202.148C58.1325 204.478 56.8897 207.39 56.3616 210.667C53.3625 209.234 50.2599 208.601 47.2753 208.834C43.9281 209.069 40.7572 210.423 38.2721 212.678C35.787 214.933 34.1319 217.958 33.5728 221.267C32.9796 224.749 33.6071 228.384 35.3867 231.776C37.9476 236.657 43.6683 240.485 52.3923 243.16C59.5001 245.338 67.018 246.231 70.8654 246.57C72.2199 246.687 73.5795 246.413 74.7833 245.782C75.9872 245.15 76.9849 244.187 77.6584 243.006C79.5641 239.649 83.1041 232.954 85.3518 225.867C88.1102 217.171 88.2105 210.286 85.6495 205.404C83.87 202.012 81.2366 199.43 78.0341 197.939Z" fill="#FE5A59"/>
<path d="M51.9525 244.595L51.9528 244.595C59.2082 246.818 66.8468 247.722 70.7339 248.064L70.7363 248.064C72.3763 248.206 74.0225 247.875 75.4802 247.11C76.9378 246.345 78.1459 245.179 78.9614 243.749L78.9628 243.746C80.8878 240.355 84.4871 233.555 86.7816 226.321L85.3518 225.867L86.7816 226.321C89.5857 217.48 89.8151 210.116 86.9778 204.707C85.0592 201.05 82.1936 198.221 78.6673 196.579C75.3228 195.017 71.5504 194.625 67.9559 195.464C64.362 196.304 61.1545 198.327 58.8483 201.208C57.1544 203.303 55.9512 205.805 55.2615 208.567C52.5942 207.561 49.8504 207.129 47.1644 207.338C43.4836 207.598 39.997 209.088 37.2642 211.567C34.5304 214.048 32.7096 217.375 32.0941 221.015C31.441 224.85 32.1398 228.815 34.0584 232.473C36.8958 237.881 43.0845 241.875 51.9525 244.595Z" stroke="white" stroke-opacity="0.9" stroke-width="3"/>
<path d="M702.589 23.0469C701.551 19.8712 699.476 17.1364 696.698 15.2818C693.919 13.4272 690.598 12.5605 687.267 12.821C684.292 13.0373 681.33 14.1167 678.59 15.9634C677.59 12.8086 675.938 10.1237 673.737 8.11346C671.288 5.84185 668.146 4.45963 664.816 4.18884C661.486 3.91804 658.162 4.7744 655.378 6.62035C652.444 8.5598 650.231 11.4894 648.978 15.0912C647.174 20.2748 648.287 27.037 652.282 35.1964C655.538 41.8431 660.006 47.9135 662.379 50.9394C663.216 52.0032 664.34 52.8049 665.618 53.2497C666.896 53.6944 668.275 53.7637 669.592 53.4492C673.328 52.5488 680.601 50.5638 687.28 47.3736C695.475 43.4584 700.545 38.8448 702.349 33.6612C703.602 30.0594 703.685 26.3887 702.589 23.0469Z" fill="#FE5A59"/>
<path d="M650.935 35.856L650.935 35.8562C654.259 42.6416 658.801 48.8077 661.199 51.8651L661.2 51.8669C662.214 53.1559 663.576 54.1274 665.125 54.6664C666.674 55.2053 668.345 55.2892 669.94 54.9081L669.943 54.9074C673.717 53.9979 681.109 51.9839 687.926 48.7271L687.28 47.3736L687.926 48.7271C696.258 44.7467 701.767 39.8996 703.766 34.1542C705.117 30.27 705.222 26.2612 704.014 22.5802C702.872 19.0851 700.589 16.0753 697.53 14.0341C694.473 11.9936 690.819 11.0396 687.154 11.3252C684.481 11.5202 681.845 12.348 679.37 13.7254C678.285 11.1045 676.732 8.81863 674.753 7.00977C672.058 4.51169 668.601 2.99167 664.938 2.69376C661.273 2.39575 657.615 3.33796 654.551 5.36902C651.319 7.50547 648.912 10.7138 647.561 14.5983C645.562 20.3438 646.874 27.5612 650.935 35.856Z" stroke="white" stroke-opacity="0.9" stroke-width="3"/>
</svg>
