<svg width="501" height="173" viewBox="0 0 501 173" fill="none" xmlns="http://www.w3.org/2000/svg">
<path opacity="0.34" d="M46.3764 134.752C36.1272 135.696 25.531 132.356 17.7308 125.631C9.34845 118.405 4.35702 107.398 4.43875 96.3367C4.85288 96.2493 5.28034 96.1869 5.69517 96.1248C6.3861 96.0044 7.0907 95.9216 7.78269 95.8391C8.47503 95.7692 9.18034 95.7116 9.87374 95.6796C9.88635 95.6792 9.88634 95.6792 9.89895 95.6789C10.5923 95.6468 11.2864 95.64 11.9809 95.6458C12.0061 95.6451 12.0188 95.6448 12.044 95.6441C12.7258 95.6502 13.3958 95.682 14.0787 95.726C14.1165 95.7249 14.1547 95.7365 14.1925 95.7354C14.8502 95.7801 15.5086 95.85 16.167 95.92C16.2304 95.9308 16.2938 95.9417 16.3443 95.9403C16.9778 96.0235 17.6243 96.119 18.2585 96.2275C18.3471 96.2377 18.4235 96.2608 18.5121 96.2709C19.1211 96.3801 19.7305 96.5019 20.3275 96.6367C20.4418 96.6588 20.5564 96.6934 20.6706 96.7155C21.2425 96.8509 21.8147 96.999 22.3746 97.1601C22.5274 97.2063 22.6675 97.2529 22.82 97.2865C23.3547 97.4483 23.8894 97.6101 24.4119 97.7848C24.5902 97.8429 24.7689 97.9136 24.9473 97.9718C25.4445 98.1472 25.9291 98.323 26.4144 98.524C26.6313 98.6063 26.836 98.7016 27.0532 98.7965C27.5003 98.986 27.9475 99.1755 28.395 99.3775C28.6378 99.4844 28.8814 99.6164 29.1242 99.7232C29.5335 99.9138 29.9302 100.105 30.3275 100.321C30.6093 100.464 30.8787 100.621 31.1482 100.777C31.507 100.969 31.8533 101.162 32.1998 101.367C32.5208 101.56 32.8166 101.753 33.1376 101.946C33.4333 102.14 33.7414 102.321 34.0245 102.515C34.3974 102.757 34.7457 103.025 35.1063 103.28C35.3253 103.438 35.557 103.596 35.776 103.753C36.356 104.179 36.9114 104.631 37.4672 105.095C46.4134 112.621 48.9565 122.75 48.6272 134.437C47.9121 134.596 47.1444 134.68 46.3764 134.752Z" fill="#135C99"/>
<path d="M44.2989 135.833C33.3641 137.54 21.7458 134.217 13.3635 126.991C4.9812 119.765 -0.0102044 108.757 0.0715685 97.6963C11.5314 95.3556 24.1929 98.9651 33.139 106.491C42.0848 114.004 44.6282 124.146 44.2989 135.833Z" fill="#16996D"/>
<path d="M26.9942 112.862C19.8548 105.841 10.9882 100.256 1.32937 97.4845C12.4498 95.6456 24.5177 99.2464 33.1404 106.491C42.0865 114.017 44.6296 124.146 44.3002 135.833C43.5463 135.955 42.7786 136.04 42.0105 136.112C38.9747 127.322 33.5884 119.343 26.9942 112.862Z" fill="#097C52"/>
<path opacity="0.34" d="M37.082 157.98C40.1404 158.375 43.0273 159.297 46.1142 159.56C48.7867 159.794 50.859 159.074 53.3172 158.416C54.9178 157.99 56.7328 157.281 58.4764 157.271C61.449 157.25 64.1359 158.75 66.7512 159.54C70.1812 160.574 74.6401 160.077 78.2273 159.672C81.3 159.327 84.3441 158.851 87.4454 158.639C91.0611 158.395 94.6483 158.709 98.2784 158.72C105.095 158.73 110.812 157.271 116.686 154.9C117.057 154.748 117.643 154.819 117.843 155.113C120.916 159.439 126.933 160.371 133.264 159.773C138.066 159.327 142.611 158.142 147.313 157.382C150.557 156.855 153.344 157.423 156.531 157.97C161.204 158.77 165.935 159.642 170.751 159.834C174.581 159.986 179.597 159.753 180.512 156.531C180.583 156.278 180.984 156.075 181.327 156.085C184.428 156.146 186.829 156.997 189.458 158.071C192.574 159.348 195.818 159.956 199.42 159.854C206.88 159.652 214.269 160.077 221.729 160.249C225.516 160.341 229.318 160.351 233.09 160.087C236.52 159.844 239.865 159.267 243.237 158.791C246.224 158.365 249.254 158.031 252.298 158.112C255.657 158.203 258.772 158.872 261.988 159.479C264.703 159.986 267.49 160.452 270.32 160.29C273.764 160.087 276.894 159.013 279.867 157.828C280.295 157.656 280.767 157.777 281.039 158.041C281.725 158.73 281.653 159.611 283.139 159.692C283.611 159.723 284.011 159.53 284.454 159.54C285.412 159.54 286.169 159.946 286.898 160.371C292.257 157.615 299.632 157.777 305.934 158.213C309.579 158.466 313.195 158.882 316.81 159.287C320.426 159.692 324.056 160.28 327.701 159.692C331.502 159.074 334.903 157.676 338.576 156.805C339.92 156.491 341.377 156.126 342.807 156.329C344.222 156.531 345.422 157.139 346.765 157.463C351.067 158.497 355.512 154.87 359.871 156.035C362.4 156.714 364.258 158.233 366.831 158.912C370.561 159.895 374.848 159.723 378.55 158.811C381.537 158.081 384.281 156.916 387.311 156.227C390.855 155.417 393.727 155.771 397.143 156.703C400.959 157.747 405.018 158.456 409.091 158.618C413.65 158.791 418.123 159.419 422.682 159.53C432.143 159.753 441.404 158.061 450.908 158.314C458.84 158.527 466.629 159.49 474.303 160.847L473.546 31.0307C468.701 30.6457 463.756 30.6862 458.94 30.514C452.48 30.281 446.263 29.5819 439.76 29.7946C435.887 29.9264 432.014 30.1189 428.141 30.1695C425.255 30.21 422.396 29.744 419.509 29.5819C416.365 29.3995 413.092 29.1766 409.948 29.359C406.747 29.5413 403.631 30.1796 400.416 30.2404C400.016 30.2506 399.744 30.0479 399.587 29.7946C399.344 29.3894 398.944 28.8727 398.515 28.5586C397.157 27.5859 396.186 28.2648 394.999 28.9638C393.184 30.0378 391.512 29.744 389.211 30.0175C384.266 30.6153 379.793 32.4086 374.748 32.7125C372.019 32.8747 370.318 32.6619 368.36 31.3346C367.088 30.4735 365.459 29.6731 363.772 29.3083C362.029 28.9335 359.957 29.2475 358.227 29.4603C354.626 29.896 351.096 30.6558 347.466 30.9091C342.264 31.284 337.019 31.3043 331.802 31.1016C321.541 30.7166 311.365 29.5413 301.147 28.8321C295.573 28.4471 289.971 28.1837 284.383 28.204C279.224 28.2242 274.136 28.67 269.005 29.0348C264.046 29.3894 259.087 29.5515 254.128 29.1057C251.541 28.8727 248.997 28.3559 246.382 28.6802C244.495 28.9132 242.766 29.5008 241.037 30.0581C237.964 31.0408 235.134 31.9121 231.933 30.7977C229.875 30.0783 227.86 29.0956 225.587 29.9871C224.215 30.5241 223.101 31.3853 221.857 32.054C219.728 33.1989 216.784 32.8645 214.74 31.6589C213.854 31.132 213.354 30.4127 212.596 29.8149C211.324 28.8119 209.438 28.4167 207.58 28.3053C203.45 28.0621 199.162 28.8119 195.104 29.2577C190.773 29.7237 186.414 29.7338 182.141 30.4633C179.569 30.9091 176.896 31.4968 174.252 31.6285C172.551 31.7196 171.108 31.2536 169.493 30.9496C168.135 30.6964 167.092 30.5545 165.906 31.132C165.263 31.4461 164.72 31.8716 164.091 32.2161C162.89 32.8949 161.676 33.3204 160.132 33.3914C159.746 33.4116 159.432 33.1887 159.303 32.9456C157.131 28.4471 151.543 31.4056 147.07 31.9527C141.167 32.6822 135.608 29.5515 129.906 31.1725C129.591 31.2637 129.091 31.1118 128.948 30.899C128.562 30.3114 128.262 29.6933 127.919 29.0956C125.161 29.7541 122.388 30.4025 119.587 30.9294C116.814 31.4562 114.128 31.5575 111.312 31.8412C110.398 31.9324 108.854 32.3073 107.897 32.1148C107.353 32.0033 106.768 31.5271 106.324 31.2941C103.981 30.0885 101.294 28.7308 98.6499 30.2911C97.1064 31.2029 95.7059 32.8747 93.5336 33.0874C91.447 33.2901 88.9746 32.8645 86.8737 32.7632C84.0011 32.6214 81.1571 32.3985 78.2988 32.1654C74.4401 31.8514 70.1097 31.5879 66.8655 33.4218C66.2653 33.7561 65.4936 33.5433 65.4078 32.9962C65.3221 32.4897 65.0648 31.9527 64.6789 31.4968C58.8766 33.209 52.8027 30.6862 46.8288 31.821C46.4429 31.8919 46.0856 31.7703 45.8713 31.5474C45.4854 31.1624 45.2853 30.7065 45.0138 30.281C40.026 32.3681 34.0093 33.8777 28.75 31.4866L29.4789 158.203C31.937 157.717 34.4666 157.635 37.082 157.98Z" fill="#37B6C8"/>
<path d="M37.0543 150.878C40.1127 151.273 42.9996 152.195 46.0865 152.458C48.759 152.691 50.8313 151.972 53.2895 151.313C54.8901 150.888 56.7051 150.179 58.4487 150.168C61.4213 150.148 64.1082 151.648 66.7235 152.438C70.1535 153.471 74.6124 152.975 78.1996 152.57C81.2723 152.225 84.3164 151.749 87.4177 151.536C91.0334 151.293 94.6206 151.607 98.2507 151.617C105.068 151.627 110.784 150.168 116.658 147.798C117.044 147.646 117.616 147.717 117.83 148.01C120.903 152.337 126.919 153.269 133.251 152.671C138.053 152.225 142.597 151.04 147.299 150.28C150.543 149.753 153.33 150.32 156.517 150.868C161.191 151.668 165.921 152.539 170.737 152.732C174.567 152.884 179.584 152.651 180.498 149.429C180.57 149.176 180.97 148.973 181.313 148.983C184.414 149.044 186.815 149.895 189.445 150.969C192.561 152.245 195.805 152.853 199.406 152.752C206.866 152.549 214.255 152.975 221.715 153.147C225.503 153.238 229.304 153.248 233.077 152.985C236.507 152.742 239.851 152.164 243.224 151.688C246.211 151.263 249.241 150.928 252.285 151.009C255.643 151.101 258.759 151.769 261.975 152.377C264.69 152.884 267.477 153.35 270.307 153.188C273.751 152.985 276.881 151.911 279.853 150.726C280.282 150.553 280.754 150.675 281.025 150.938C281.711 151.627 281.64 152.509 283.126 152.59C283.598 152.62 283.998 152.428 284.441 152.438C285.398 152.438 286.156 152.843 286.885 153.269C292.244 150.513 299.618 150.675 305.921 151.111C309.565 151.364 313.181 151.779 316.797 152.185C320.413 152.59 324.043 153.178 327.687 152.59C331.489 151.972 334.89 150.574 338.563 149.702C339.906 149.388 341.364 149.024 342.793 149.226C344.208 149.429 345.409 150.037 346.752 150.361C351.054 151.394 355.498 147.767 359.857 148.932C362.387 149.611 364.245 151.131 366.817 151.81C370.547 152.793 374.835 152.62 378.536 151.708C381.523 150.979 384.267 149.814 387.297 149.125C390.841 148.314 393.714 148.669 397.13 149.601C400.946 150.645 404.99 151.354 409.077 151.516C413.636 151.688 418.11 152.316 422.669 152.428C432.13 152.651 441.391 150.959 450.894 151.212C458.826 151.425 466.615 152.387 474.29 153.745L473.518 23.9284C468.673 23.5434 463.728 23.5839 458.912 23.4117C452.452 23.1787 446.235 22.4796 439.733 22.6923C435.86 22.8241 431.987 23.0166 428.114 23.0672C425.227 23.1077 422.369 22.6417 419.482 22.4796C416.338 22.2972 413.065 22.0743 409.921 22.2567C406.719 22.4391 403.604 23.0773 400.388 23.1381C399.988 23.1483 399.716 22.9456 399.559 22.6923C399.316 22.2871 398.916 21.7704 398.487 21.4563C397.13 20.4836 396.158 21.1625 394.972 21.8616C393.157 22.9355 391.485 22.6417 389.184 22.9152C384.239 23.513 379.765 25.3063 374.721 25.6103C371.991 25.7724 370.29 25.5596 368.332 24.2324C367.06 23.3712 365.431 22.5708 363.745 22.206C362.001 21.8312 359.929 22.1452 358.2 22.358C354.598 22.7937 351.068 23.5535 347.438 23.8068C342.236 24.1817 336.991 24.202 331.774 23.9993C321.513 23.6143 311.338 22.4391 301.119 21.7298C295.545 21.3448 289.943 21.0814 284.355 21.1017C279.196 21.1219 274.108 21.5677 268.977 21.9325C264.018 22.2871 259.059 22.4492 254.1 22.0034C251.513 21.7704 248.969 21.2537 246.354 21.5779C244.467 21.8109 242.738 22.3985 241.009 22.9558C237.936 23.9385 235.106 24.8099 231.905 23.6954C229.847 22.976 227.832 21.9933 225.56 22.8848C224.188 23.4218 223.073 24.283 221.83 24.9517C219.7 26.0966 216.756 25.7622 214.712 24.5566C213.826 24.0297 213.326 23.3104 212.569 22.7126C211.297 21.7096 209.41 21.3144 207.552 21.203C203.422 20.9598 199.135 21.7096 195.076 22.1554C190.746 22.6214 186.387 22.6316 182.113 23.361C179.541 23.8068 176.868 24.3945 174.224 24.5262C172.524 24.6174 171.08 24.1513 169.465 23.8473C168.108 23.5941 167.064 23.4522 165.878 24.0297C165.235 24.3438 164.692 24.7693 164.063 25.1138C162.834 25.7926 161.619 26.2182 160.076 26.2992C159.69 26.3195 159.376 26.0966 159.247 25.8534C157.075 21.355 151.487 24.3134 147.013 24.8605C141.111 25.59 135.552 22.4593 129.849 24.0804C129.535 24.1716 129.035 24.0196 128.892 23.8068C128.506 23.2192 128.206 22.6012 127.863 22.0034C125.104 22.6619 122.332 23.3104 119.531 23.8372C116.758 24.3641 114.071 24.4654 111.256 24.7491C110.341 24.8402 108.798 25.2151 107.84 25.0226C107.311 24.9213 106.726 24.4451 106.283 24.2121C103.953 22.9862 101.266 21.6285 98.6079 23.1888C97.0645 24.1006 95.6639 25.7724 93.4916 25.9851C91.405 26.1878 88.9326 25.7622 86.8317 25.6609C83.9591 25.5191 81.1151 25.2962 78.2568 25.0631C74.3981 24.7491 70.0677 24.4856 66.8236 26.3195C66.2233 26.6538 65.4516 26.441 65.3658 25.8939C65.2801 25.3874 65.0228 24.8504 64.6369 24.3945C58.8346 26.1067 52.7607 23.5839 46.7868 24.7187C46.4009 24.7896 46.0436 24.668 45.8293 24.4451C45.4434 24.0601 45.2433 23.6042 44.9718 23.1787C39.984 25.2556 33.9673 26.7653 28.708 24.3742L29.4369 151.09C31.9093 150.624 34.4389 150.543 37.0543 150.878Z" fill="#00A59B"/>
<path d="M450.866 151.232C458.798 151.445 466.587 152.408 474.261 153.765L474.061 104.11C461.47 119.855 450.209 135.923 437.761 151.759C442.105 151.415 446.464 151.111 450.866 151.232Z" fill="#00A59B"/>
<path d="M374.705 152.357C376.02 152.235 377.306 152.023 378.521 151.719C381.508 150.989 384.252 149.824 387.282 149.135C390.826 148.325 393.699 148.679 397.114 149.611C400.93 150.655 404.975 151.364 409.062 151.526C413.621 151.698 418.094 152.327 422.653 152.438C427.727 152.56 432.743 152.134 437.759 151.739C450.222 135.913 461.469 119.845 474.06 104.09L473.903 62.9656C430.614 86.8458 391.855 117.312 374.705 152.357Z" fill="#12645F" fill-opacity="0.17"/>
<path d="M439.732 22.6923C435.859 22.8241 431.986 23.0166 428.113 23.0672C425.226 23.1077 422.368 22.6417 419.481 22.4796C416.337 22.2972 413.064 22.0743 409.92 22.2567C406.718 22.4391 403.603 23.0773 400.387 23.1381C399.987 23.1483 399.715 22.9456 399.558 22.6923C399.315 22.2871 398.915 21.7704 398.486 21.4563C397.129 20.4836 396.157 21.1625 394.971 21.8616C393.227 22.895 391.598 22.6619 389.426 22.8848C380.508 38.9739 369.417 53.6748 354.697 69.0141C350.424 74.0901 343.307 80.1792 347.623 86.248C351.939 92.3169 364.773 87.2308 370.475 83.168C397.214 62.1955 422.853 42.0437 449.807 22.9051C446.477 22.7227 443.147 22.5809 439.732 22.6923Z" fill="#12645F" fill-opacity="0.17"/>
<path d="M37.0549 150.878C40.1133 151.273 43.0002 152.195 46.0871 152.458C48.7597 152.691 50.8319 151.972 53.2901 151.313C54.8907 150.888 56.7058 150.179 58.4493 150.169C61.422 150.148 64.1088 151.648 66.7241 152.438C70.1541 153.471 74.6131 152.975 78.2003 152.57C81.2729 152.225 84.317 151.749 87.4183 151.536C91.0341 151.293 94.6212 151.607 98.2513 151.617C105.068 151.628 110.785 150.169 116.659 147.798C117.045 147.646 117.616 147.717 117.831 148.011C120.903 152.337 126.92 153.269 133.251 152.671C138.053 152.225 142.598 151.04 147.3 150.28C150.544 149.753 153.331 150.321 156.518 150.868C159.862 151.445 163.235 152.043 166.651 152.418C181.871 134.161 204.78 118.193 219.644 99.7232C224.06 94.2217 216.342 87.7578 208.039 90.088C207.967 90.1083 207.896 90.1286 207.825 90.1488C163.564 102.398 132.251 135.893 83.6739 136.997C76.5281 138.021 86.4894 124.829 76.4853 124.85C57.9063 125.903 46.5302 138.082 30.8381 146.217C30.4093 146.369 29.9234 146.501 29.4375 146.612L29.4518 151.06C31.9099 150.624 34.4395 150.543 37.0549 150.878Z" fill="#12645F" fill-opacity="0.17"/>
<path opacity="0.34" d="M440.175 167.878C439.559 152.74 445.271 137.389 455.752 126.412C467.018 114.62 483.585 108.111 499.85 109.051C499.945 109.667 500.001 110.301 500.077 110.917C500.197 111.943 500.279 112.987 500.325 114.011C500.37 115.035 500.397 116.078 500.387 117.1C500.386 117.119 500.386 117.119 500.386 117.137C500.376 118.16 500.347 119.182 500.281 120.203C500.28 120.24 500.28 120.259 500.279 120.296C500.213 121.299 500.129 122.301 500.009 123.283C500.007 123.339 499.987 123.394 499.986 123.45C499.866 124.413 499.727 125.377 499.551 126.358C499.53 126.45 499.527 126.543 499.506 126.617C499.332 127.542 499.156 128.485 498.944 129.409C498.922 129.539 498.881 129.668 498.86 129.779C498.649 130.666 498.419 131.552 498.172 132.419C498.13 132.585 498.07 132.751 498.028 132.917C497.781 133.747 497.535 134.577 497.251 135.406C497.171 135.627 497.091 135.83 497.029 136.051C496.746 136.824 496.464 137.598 496.164 138.352C496.064 138.609 495.945 138.866 495.845 139.124C495.546 139.841 495.247 140.539 494.93 141.237C494.791 141.549 494.634 141.842 494.495 142.155C494.18 142.797 493.883 143.439 493.549 144.081C493.372 144.429 493.176 144.777 492.98 145.125C492.666 145.712 492.353 146.279 492.021 146.847C491.786 147.249 491.534 147.633 491.281 148.016C490.969 148.528 490.658 149.022 490.328 149.514C490.036 149.971 489.707 150.408 489.398 150.846C489.107 151.266 488.816 151.704 488.506 152.123C488.12 152.652 487.696 153.16 487.291 153.67C487.041 153.979 486.79 154.307 486.539 154.634C485.865 155.452 485.155 156.251 484.445 157.012C472.71 169.609 457.6 172.589 440.435 171.233C440.298 170.132 440.218 169.014 440.175 167.878Z" fill="#135C99"/>
<path d="M438.757 164.732C437.073 148.522 442.828 131.666 454.094 119.874C465.36 108.083 481.927 101.573 498.192 102.513C500.765 119.547 494.503 137.896 482.768 150.493C471.032 163.127 455.922 166.106 438.757 164.732Z" fill="#48B059"/>
<path d="M473.848 140.999C484.728 131.019 493.599 118.416 498.419 104.398C500.281 120.891 494.081 138.386 482.768 150.53C471.032 163.127 455.922 166.106 438.757 164.75C438.64 163.631 438.56 162.494 438.517 161.359C451.662 157.524 463.826 150.203 473.848 140.999Z" fill="#168828"/>
<path d="M50.4602 128.991C48.4944 128.072 46.277 127.841 44.1641 128.335C42.0512 128.829 40.1656 130.018 38.8101 131.712C37.5915 133.219 36.7879 135.102 36.4464 137.221C34.5072 136.294 32.501 135.885 30.5711 136.035C28.4067 136.188 26.3563 137.063 24.7494 138.521C23.1425 139.979 22.0723 141.935 21.7108 144.075C21.3272 146.327 21.733 148.677 22.8837 150.87C24.5396 154.027 28.2387 156.502 33.8798 158.232C38.4758 159.64 43.337 160.217 45.8248 160.436C46.7006 160.512 47.5798 160.335 48.3582 159.927C49.1366 159.518 49.7818 158.895 50.2173 158.132C51.4495 155.961 53.7385 151.632 55.192 147.05C56.9756 141.426 57.0404 136.974 55.3845 133.818C54.2338 131.624 52.531 129.955 50.4602 128.991Z" fill="#FE5A59"/>
<path d="M23.7415 137.41C21.886 139.094 20.65 141.353 20.2321 143.823C19.7886 146.427 20.2657 149.109 21.5554 151.567C23.4878 155.25 27.6549 157.892 33.44 159.666L33.4403 159.666C38.184 161.119 43.1658 161.708 45.6933 161.93L45.6957 161.931C46.857 162.031 48.0228 161.796 49.0551 161.255C50.0873 160.713 50.9428 159.887 51.5202 158.875L51.5217 158.872C52.7732 156.667 55.1216 152.233 56.6217 147.503L55.192 147.05L56.6217 147.503C58.4511 141.736 58.6451 136.804 56.7127 133.121C55.4232 130.663 53.4884 128.746 51.0943 127.631C48.8239 126.571 46.263 126.304 43.8229 126.874C41.3837 127.444 39.2068 128.817 37.6413 130.772C36.6105 132.047 35.8523 133.539 35.3733 135.173C33.7555 134.637 32.0959 134.413 30.4602 134.539C27.9623 134.716 25.5962 135.728 23.7415 137.41Z" stroke="white" stroke-opacity="0.9" stroke-width="3"/>
<path d="M454.305 15.9025C453.634 13.849 452.293 12.0807 450.496 10.8815C448.699 9.68226 446.551 9.12185 444.398 9.29026C442.474 9.43012 440.559 10.1281 438.787 11.3222C438.141 9.28224 437.072 7.54617 435.649 6.2463C434.065 4.77744 432.034 3.88367 429.881 3.70857C427.728 3.53347 425.578 4.08721 423.778 5.28082C421.881 6.53491 420.45 8.42924 419.639 10.7582C418.473 14.11 419.193 18.4826 421.776 23.7586C423.881 28.0564 426.77 31.9816 428.305 33.9383C428.846 34.6261 429.573 35.1445 430.399 35.4321C431.226 35.7197 432.117 35.7645 432.969 35.5611C435.385 34.9789 440.088 33.6954 444.406 31.6325C449.705 29.1009 452.984 26.1177 454.15 22.7659C454.96 20.4369 455.014 18.0634 454.305 15.9025Z" fill="#FE5A59"/>
<path d="M420.429 24.4181L420.429 24.4184C422.602 28.8549 425.565 32.8759 427.124 34.8639L427.126 34.8658C427.844 35.7789 428.809 36.467 429.906 36.8488C431.004 37.2306 432.187 37.29 433.317 37.0201L433.32 37.0194C435.774 36.428 440.595 35.1155 445.052 32.986L444.406 31.6325L445.052 32.986C450.488 30.3892 454.205 27.1725 455.567 23.2588C456.475 20.6475 456.551 17.9359 455.73 15.4358C454.955 13.063 453.405 11.0196 451.328 9.63381C449.253 8.24859 446.772 7.60086 444.285 7.79449C442.658 7.91337 441.059 8.37724 439.548 9.13932C438.836 7.60088 437.87 6.24399 436.665 5.1426C434.835 3.44727 432.489 2.4157 430.002 2.21349C427.514 2.01118 425.031 2.65076 422.95 4.0295C420.755 5.48058 419.131 7.65365 418.223 10.2653C416.861 14.1791 417.779 19.0067 420.429 24.4181Z" stroke="white" stroke-opacity="0.9" stroke-width="3"/>
</svg>
