<svg width="381" height="79" viewBox="0 0 381 79" fill="none" xmlns="http://www.w3.org/2000/svg">
<path d="M380.973 0H361.85H350.411H0V78.8316H350.403H361.841H371.171C371.26 78.3662 370.94 77.6414 370.869 77.1607C370.753 76.4053 370.905 75.3371 370.38 74.7496C369.908 74.2308 369.25 74.0553 368.903 73.4297C368.752 73.1626 368.761 72.8269 368.619 72.5751C368.467 72.3081 368.13 72.0105 367.907 71.774C367.356 71.1789 367.213 70.454 367.142 69.6911C367.071 68.9204 367.382 67.9286 366.626 67.3411C366.235 67.0359 365.612 66.9367 365.257 66.5857C364.589 65.9143 364.936 65.2734 364.892 64.4112C364.91 64.5943 364.83 64.7393 364.661 64.8461C363.976 64.869 363.958 63.7093 363.691 63.343C363.567 63.1675 363.264 63.0989 363.175 62.9234C362.98 62.5571 363.104 62.2062 362.882 61.8247C362.686 61.489 362.553 61.1838 362.384 60.8023C362.268 60.5505 362.072 60.0546 361.832 59.612V55.1486C362.437 54.79 363.193 54.4314 363.629 54.2864C363.122 53.9507 363.522 53.8744 363.575 53.5539C363.656 53.0809 363.558 52.7375 363.869 52.3408C364.278 51.8143 364.839 51.7456 365.47 51.5396C366.182 51.3107 366.271 51.0132 366.582 50.4028C366.938 49.7008 367.142 49.0523 367.169 48.2817C367.187 47.595 366.955 47.2135 366.804 46.5726C366.546 45.4968 366.982 44.9474 367.72 44.1616C368.138 43.7114 368.637 43.2078 368.681 42.6051C368.841 40.629 366.315 41.1249 365.194 40.0567C364.963 39.8354 364.821 39.4311 364.696 39.1564C364.634 38.9504 364.554 38.7444 364.465 38.546C364.323 38.3858 364.154 38.2484 363.958 38.1416C363.718 37.4778 364.919 37.4015 365.132 36.9437C365.328 36.5165 364.972 36.3333 364.883 35.9824C364.785 35.5627 364.936 35.1507 364.34 34.9142C363.994 34.7769 363.513 34.9295 363.14 34.8837C363.3 33.8765 364.171 33.1288 365.185 32.7244C365.701 32.5184 366.466 32.5337 366.938 32.3124C367.373 32.1064 367.56 31.7478 367.792 31.3816C368.272 30.6262 368.841 29.764 369.117 28.9248C369.295 28.383 369.152 28.0931 369.98 27.849C370.353 27.7345 370.629 27.8032 370.994 27.7421C371.421 27.5895 371.856 27.4751 372.31 27.3912C372.692 27.4217 373.066 27.3835 373.431 27.2691C373.529 26.6892 373.457 25.9644 373.448 25.3845C373.475 24.7817 373.386 24.1943 373.182 23.622C373.048 23.3626 372.95 23.0956 372.888 22.8209C372.853 21.4475 374.498 20.509 374.489 19.1891C374.48 18.3116 373.662 17.3808 373.226 16.6254C372.844 15.954 372.719 15.9693 371.919 15.6946C371.385 15.5115 370.469 15.336 370.015 15.0613C369.143 14.5425 369.481 13.6345 369.393 12.8944C368.637 12.7953 367.765 13.1233 367.035 12.8181C366.564 12.6198 366.413 12.2764 366.182 11.9331C366.164 11.8034 366.119 11.6737 366.048 11.5592C365.852 11.3303 365.621 11.1396 365.363 10.9717C365.043 10.4682 365.23 10.0333 365.363 9.46864C366.733 9.06426 368.272 9.32368 369.668 9.43812C369.757 9.15582 370.051 8.93455 370.131 8.65225C370.264 8.20209 369.997 7.90452 369.953 7.46962C369.908 7.0805 370.122 6.29463 370.576 6.06573C370.967 5.86736 371.625 6.00469 372.034 6.01232C374.044 6.06573 374.952 3.59366 376.063 2.44155C376.784 1.69383 376.908 1.87694 378.011 1.90746C378.928 1.93035 380.075 2.02191 381 1.8922C381 1.28181 380.973 0.640907 380.973 0Z" fill="white"/>
</svg>
