<svg width="402" height="139" viewBox="0 0 402 139" fill="none" xmlns="http://www.w3.org/2000/svg">
<path opacity="0.34" d="M37.1558 108.153C28.9445 108.908 20.4551 106.233 14.2057 100.846C7.49003 95.0567 3.49102 86.2382 3.55649 77.3769C3.88828 77.3069 4.23074 77.2569 4.5631 77.2071C5.11665 77.1107 5.68116 77.0443 6.23556 76.9782C6.79024 76.9223 7.35532 76.8761 7.91085 76.8504C7.92096 76.8502 7.92095 76.8502 7.93105 76.8499C8.48658 76.8242 9.04267 76.8188 9.59906 76.8234C9.61927 76.8228 9.62939 76.8226 9.6496 76.822C10.1959 76.8269 10.7326 76.8524 11.2797 76.8876C11.31 76.8868 11.3406 76.896 11.371 76.8952C11.8979 76.931 12.4253 76.987 12.9528 77.0431C13.0036 77.0517 13.0545 77.0604 13.0949 77.0593C13.6024 77.126 14.1204 77.2025 14.6285 77.2894C14.6995 77.2976 14.7607 77.3161 14.8317 77.3242C15.3196 77.4117 15.8078 77.5093 16.2862 77.6173C16.3777 77.6349 16.4695 77.6627 16.561 77.6803C17.0192 77.7889 17.4776 77.9075 17.9262 78.0366C18.0486 78.0736 18.1609 78.1109 18.283 78.1378C18.7114 78.2674 19.1398 78.397 19.5584 78.537C19.7013 78.5836 19.8445 78.6402 19.9874 78.6868C20.3857 78.8274 20.774 78.9682 21.1628 79.1293C21.3366 79.1952 21.5005 79.2715 21.6746 79.3475C22.0328 79.4993 22.3911 79.6511 22.7496 79.813C22.9441 79.8986 23.1393 80.0044 23.3338 80.09C23.6617 80.2426 23.9795 80.3955 24.2979 80.5687C24.5236 80.6837 24.7395 80.8091 24.9554 80.9346C25.2429 81.0883 25.5203 81.2424 25.7979 81.4066C26.0551 81.5612 26.292 81.7164 26.5492 81.871C26.7862 82.0262 27.033 82.171 27.2598 82.3264C27.5585 82.5203 27.8376 82.735 28.1265 82.9393C28.302 83.0659 28.4876 83.1922 28.6631 83.3187C29.1277 83.6597 29.5727 84.0215 30.018 84.3933C37.1854 90.4227 39.2229 98.5375 38.9591 107.9C38.3862 108.027 37.7711 108.095 37.1558 108.153Z" fill="#135C99"/>
<path d="M35.4911 109.019C26.7306 110.386 17.4223 107.724 10.7066 101.935C3.99091 96.1458 -0.00810924 87.3274 0.05736 78.466C9.23862 76.5908 19.3826 79.4825 26.5501 85.5119C33.7172 91.5312 35.755 99.6561 35.4911 109.019Z" fill="#16996D"/>
<path d="M21.626 90.6155C15.906 84.9906 8.8024 80.517 1.06399 78.2962C9.97332 76.8231 19.6418 79.7079 26.5501 85.5119C33.7175 91.5413 35.755 99.656 35.4912 109.019C34.8871 109.116 34.272 109.184 33.6567 109.242C31.2245 102.2 26.9091 95.8076 21.626 90.6155Z" fill="#097C52"/>
<path opacity="0.34" d="M29.7097 126.761C32.16 127.078 34.4729 127.816 36.9461 128.027C39.0872 128.214 40.7475 127.638 42.7169 127.11C43.9993 126.769 45.4534 126.201 46.8503 126.193C49.2319 126.177 51.3845 127.378 53.4799 128.011C56.2279 128.839 59.8003 128.441 62.6743 128.117C65.136 127.841 67.5749 127.459 70.0595 127.289C72.9564 127.094 75.8303 127.346 78.7386 127.354C84.2003 127.362 88.7803 126.193 93.4862 124.294C93.7839 124.172 94.2534 124.229 94.4137 124.464C96.8754 127.93 101.696 128.677 106.768 128.198C110.615 127.841 114.257 126.891 118.024 126.282C120.623 125.86 122.856 126.315 125.409 126.753C129.153 127.394 132.943 128.092 136.802 128.247C139.87 128.368 143.889 128.182 144.622 125.6C144.679 125.398 145 125.235 145.275 125.243C147.759 125.292 149.683 125.974 151.79 126.834C154.286 127.857 156.885 128.344 159.77 128.263C165.747 128.1 171.667 128.441 177.644 128.579C180.678 128.652 183.724 128.66 186.747 128.449C189.495 128.255 192.174 127.792 194.876 127.411C197.269 127.07 199.697 126.802 202.135 126.867C204.826 126.94 207.322 127.475 209.899 127.962C212.074 128.368 214.307 128.742 216.574 128.612C219.333 128.449 221.841 127.589 224.223 126.639C224.566 126.501 224.944 126.599 225.161 126.81C225.711 127.362 225.654 128.068 226.845 128.133C227.222 128.157 227.543 128.003 227.898 128.011C228.665 128.011 229.272 128.336 229.856 128.677C234.15 126.469 240.058 126.599 245.107 126.948C248.027 127.151 250.924 127.484 253.821 127.808C256.718 128.133 259.626 128.604 262.546 128.133C265.591 127.638 268.317 126.518 271.259 125.82C272.335 125.568 273.503 125.276 274.648 125.438C275.782 125.6 276.744 126.087 277.82 126.347C281.266 127.175 284.827 124.269 288.32 125.203C290.346 125.747 291.835 126.964 293.896 127.508C296.884 128.295 300.319 128.157 303.285 127.427C305.678 126.842 307.876 125.909 310.304 125.357C313.143 124.708 315.445 124.992 318.181 125.738C321.238 126.574 324.49 127.143 327.754 127.273C331.406 127.411 334.99 127.914 338.643 128.003C346.222 128.182 353.642 126.826 361.256 127.029C367.611 127.199 373.851 127.971 380 129.058L379.393 25.0585C375.512 24.75 371.55 24.7825 367.691 24.6445C362.516 24.4578 357.535 23.8978 352.325 24.0682C349.222 24.1737 346.119 24.328 343.016 24.3685C340.703 24.401 338.414 24.0276 336.101 23.8978C333.582 23.7517 330.96 23.5731 328.441 23.7192C325.876 23.8653 323.38 24.3767 320.803 24.4254C320.483 24.4335 320.265 24.2711 320.139 24.0682C319.945 23.7436 319.624 23.3296 319.281 23.078C318.193 22.2988 317.414 22.8426 316.464 23.4027C315.01 24.263 313.67 24.0276 311.827 24.2468C307.865 24.7257 304.281 26.1623 300.239 26.4058C298.052 26.5357 296.69 26.3653 295.121 25.302C294.102 24.612 292.797 23.9708 291.446 23.6786C290.049 23.3783 288.388 23.6299 287.003 23.8004C284.118 24.1494 281.289 24.7581 278.381 24.9611C274.213 25.2614 270.011 25.2776 265.832 25.1153C257.611 24.8068 249.458 23.8653 241.272 23.2971C236.806 22.9887 232.318 22.7777 227.841 22.7939C223.707 22.8101 219.631 23.1673 215.52 23.4595C211.547 23.7436 207.574 23.8734 203.601 23.5163C201.529 23.3296 199.49 22.9156 197.395 23.1754C195.884 23.3621 194.498 23.8328 193.113 24.2793C190.651 25.0666 188.384 25.7646 185.819 24.8718C184.17 24.2955 182.556 23.5082 180.735 24.2224C179.636 24.6526 178.743 25.3426 177.747 25.8783C176.041 26.7954 173.682 26.5276 172.045 25.5617C171.335 25.1396 170.934 24.5633 170.327 24.0845C169.308 23.2809 167.797 22.9643 166.308 22.8751C162.999 22.6803 159.564 23.2809 156.312 23.638C152.843 24.0114 149.351 24.0195 145.927 24.6039C143.866 24.9611 141.725 25.4318 139.607 25.5374C138.244 25.6104 137.088 25.237 135.794 24.9935C134.706 24.7906 133.87 24.677 132.92 25.1396C132.405 25.3913 131.97 25.7322 131.466 26.0081C130.504 26.5519 129.531 26.8928 128.294 26.9497C127.985 26.9659 127.733 26.7873 127.63 26.5925C125.89 22.9887 121.413 25.3588 117.829 25.7971C113.1 26.3815 108.646 23.8734 104.077 25.1721C103.826 25.2452 103.425 25.1234 103.31 24.953C103.001 24.4822 102.761 23.9871 102.486 23.5082C100.276 24.0358 98.0548 24.5552 95.8106 24.9773C93.5893 25.3994 91.4367 25.4805 89.181 25.7078C88.4482 25.7809 87.2116 26.0812 86.4445 25.927C86.0094 25.8377 85.5399 25.4562 85.185 25.2695C83.3072 24.3036 81.1546 23.216 79.0363 24.4659C77.7997 25.1965 76.6776 26.5357 74.9372 26.7062C73.2655 26.8685 71.2847 26.5276 69.6015 26.4464C67.3001 26.3328 65.0215 26.1542 62.7315 25.9675C59.64 25.7159 56.1706 25.5049 53.5715 26.974C53.0906 27.2419 52.4723 27.0714 52.4036 26.6331C52.3349 26.2273 52.1288 25.7971 51.8196 25.4318C47.1709 26.8036 42.3047 24.7825 37.5186 25.6916C37.2094 25.7484 36.9232 25.651 36.7514 25.4724C36.4423 25.164 36.282 24.7987 36.0644 24.4578C32.0684 26.1299 27.2479 27.3393 23.0343 25.4237L23.6183 126.94C25.5877 126.55 27.6143 126.485 29.7097 126.761Z" fill="#37B6C8"/>
<path d="M29.6868 121.071C32.1371 121.388 34.45 122.126 36.9232 122.338C39.0644 122.524 40.7246 121.948 42.694 121.42C43.9764 121.079 45.4306 120.511 46.8275 120.503C49.2091 120.487 51.3617 121.688 53.457 122.321C56.205 123.149 59.7774 122.751 62.6514 122.427C65.1132 122.151 67.552 121.769 70.0367 121.599C72.9335 121.404 75.8075 121.656 78.7158 121.664C84.1774 121.672 88.7574 120.503 93.4634 118.604C93.7725 118.482 94.2305 118.539 94.4023 118.774C96.864 122.24 101.685 122.987 106.757 122.508C110.604 122.151 114.245 121.201 118.012 120.592C120.611 120.17 122.844 120.625 125.397 121.063C129.142 121.704 132.932 122.402 136.79 122.557C139.859 122.678 143.878 122.492 144.611 119.911C144.668 119.708 144.988 119.545 145.263 119.553C147.748 119.602 149.672 120.284 151.778 121.144C154.274 122.167 156.874 122.654 159.759 122.573C165.736 122.411 171.656 122.751 177.632 122.889C180.667 122.963 183.712 122.971 186.735 122.76C189.483 122.565 192.163 122.102 194.865 121.721C197.258 121.38 199.685 121.112 202.124 121.177C204.815 121.25 207.311 121.786 209.887 122.273C212.063 122.678 214.295 123.052 216.562 122.922C219.322 122.76 221.829 121.899 224.211 120.95C224.555 120.812 224.932 120.909 225.15 121.12C225.7 121.672 225.642 122.378 226.833 122.443C227.211 122.467 227.532 122.313 227.887 122.321C228.654 122.321 229.261 122.646 229.844 122.987C234.138 120.779 240.046 120.909 245.096 121.258C248.016 121.461 250.913 121.794 253.809 122.118C256.706 122.443 259.615 122.914 262.534 122.443C265.58 121.948 268.305 120.828 271.248 120.13C272.324 119.878 273.492 119.586 274.637 119.748C275.771 119.911 276.732 120.398 277.809 120.657C281.255 121.485 284.816 118.579 288.308 119.513C290.335 120.057 291.823 121.274 293.884 121.818C296.873 122.605 300.308 122.467 303.273 121.737C305.667 121.152 307.865 120.219 310.292 119.667C313.132 119.018 315.433 119.302 318.17 120.049C321.227 120.885 324.467 121.453 327.742 121.583C331.395 121.721 334.979 122.224 338.631 122.313C346.211 122.492 353.631 121.136 361.245 121.339C367.6 121.51 373.84 122.281 379.989 123.368L379.37 19.3686C375.489 19.0602 371.527 19.0926 367.668 18.9547C362.493 18.768 357.512 18.2079 352.302 18.3784C349.199 18.4839 346.096 18.6381 342.994 18.6787C340.681 18.7112 338.391 18.3378 336.078 18.2079C333.559 18.0618 330.937 17.8833 328.418 18.0294C325.853 18.1755 323.357 18.6868 320.781 18.7355C320.46 18.7436 320.242 18.5813 320.116 18.3784C319.922 18.0537 319.601 17.6398 319.258 17.3881C318.17 16.6089 317.391 17.1527 316.441 17.7128C314.987 18.5732 313.647 18.3378 311.804 18.5569C307.842 19.0358 304.258 20.4725 300.216 20.716C298.029 20.8459 296.667 20.6754 295.098 19.6121C294.079 18.9222 292.774 18.281 291.423 17.9888C290.026 17.6885 288.366 17.9401 286.98 18.1105C284.095 18.4595 281.267 19.0683 278.358 19.2712C274.19 19.5715 269.988 19.5878 265.809 19.4254C257.588 19.117 249.435 18.1755 241.249 17.6073C236.783 17.2988 232.295 17.0878 227.818 17.104C223.684 17.1203 219.608 17.4774 215.498 17.7696C211.524 18.0537 207.551 18.1836 203.578 17.8264C201.506 17.6398 199.468 17.2258 197.372 17.4855C195.861 17.6722 194.475 18.143 193.09 18.5894C190.628 19.3767 188.361 20.0748 185.796 19.1819C184.147 18.6056 182.533 17.8183 180.712 18.5326C179.613 18.9628 178.72 19.6527 177.724 20.1884C176.018 21.1056 173.659 20.8377 172.022 19.8719C171.312 19.4498 170.911 18.8735 170.304 18.3946C169.285 17.5911 167.774 17.2745 166.285 17.1852C162.976 16.9904 159.541 17.5911 156.29 17.9482C152.82 18.3216 149.328 18.3297 145.904 18.9141C143.843 19.2712 141.702 19.742 139.584 19.8475C138.221 19.9206 137.065 19.5472 135.771 19.3037C134.683 19.1008 133.848 18.9871 132.897 19.4498C132.382 19.7014 131.947 20.0423 131.443 20.3183C130.458 20.8621 129.485 21.203 128.249 21.2679C127.939 21.2842 127.687 21.1056 127.584 20.9108C125.844 17.307 121.367 19.6771 117.783 20.1154C113.054 20.6998 108.6 18.1917 104.032 19.4904C103.78 19.5634 103.379 19.4417 103.265 19.2712C102.955 18.8004 102.715 18.3053 102.44 17.8264C100.23 18.354 98.009 18.8735 95.7648 19.2956C93.5435 19.7176 91.3909 19.7988 89.1353 20.0261C88.4025 20.0991 87.1659 20.3994 86.3987 20.2452C85.9751 20.1641 85.5056 19.7826 85.1507 19.5959C83.2843 18.6138 81.1317 17.5261 79.002 18.7761C77.7654 19.5066 76.6433 20.8459 74.9029 21.0163C73.2312 21.1786 71.2504 20.8377 69.5672 20.7566C67.2658 20.6429 64.9872 20.4644 62.6972 20.2777C59.6057 20.0261 56.1363 19.815 53.5372 21.2842C53.0563 21.552 52.438 21.3816 52.3693 20.9433C52.3006 20.5374 52.0945 20.1072 51.7853 19.742C47.1366 21.1137 42.2704 19.0926 37.4843 20.0017C37.1751 20.0585 36.8889 19.9611 36.7171 19.7826C36.408 19.4741 36.2477 19.1089 36.0301 18.768C32.0341 20.4319 27.2136 21.6413 23 19.7258L23.584 121.242C25.5648 120.868 27.5915 120.803 29.6868 121.071Z" fill="#00A59B"/>
<path d="M361.222 121.355C367.577 121.526 373.817 122.297 379.966 123.385L379.805 83.6045C369.718 96.2179 360.695 109.091 350.722 121.777C354.203 121.502 357.695 121.258 361.222 121.355Z" fill="#00A59B"/>
<path d="M300.205 122.256C301.258 122.159 302.289 121.989 303.262 121.745C305.655 121.161 307.853 120.227 310.281 119.675C313.12 119.026 315.422 119.31 318.158 120.057C321.216 120.893 324.456 121.461 327.731 121.591C331.383 121.729 334.967 122.232 338.62 122.321C342.684 122.419 346.703 122.078 350.722 121.761C360.707 109.083 369.718 96.2098 379.805 83.5882L379.679 50.6424C344.997 69.7735 313.945 94.1806 300.205 122.256Z" fill="#12645F" fill-opacity="0.17"/>
<path d="M352.302 18.3784C349.199 18.4839 346.097 18.6381 342.994 18.6787C340.681 18.7112 338.391 18.3378 336.078 18.2079C333.559 18.0618 330.937 17.8833 328.418 18.0294C325.853 18.1755 323.357 18.6868 320.781 18.7355C320.46 18.7436 320.242 18.5813 320.116 18.3784C319.922 18.0537 319.601 17.6398 319.258 17.3881C318.17 16.6089 317.391 17.1527 316.441 17.7128C315.044 18.5407 313.739 18.354 311.998 18.5326C304.854 31.422 295.968 43.1994 284.175 55.4881C280.751 59.5546 275.049 64.4327 278.507 69.2947C281.965 74.1566 292.247 70.082 296.816 66.8272C318.239 50.0255 338.78 33.8813 360.375 18.5488C357.707 18.4027 355.039 18.2891 352.302 18.3784Z" fill="#12645F" fill-opacity="0.17"/>
<path d="M29.6868 121.071C32.1371 121.388 34.45 122.127 36.9233 122.338C39.0644 122.524 40.7247 121.948 42.6941 121.42C43.9765 121.079 45.4306 120.511 46.8275 120.503C49.2091 120.487 51.3617 121.688 53.4571 122.321C56.2051 123.149 59.7775 122.751 62.6514 122.427C65.1132 122.151 67.552 121.769 70.0367 121.599C72.9335 121.404 75.8075 121.656 78.7158 121.664C84.1775 121.672 88.7575 120.503 93.4634 118.604C93.7726 118.482 94.2306 118.539 94.4023 118.774C96.8641 122.24 101.685 122.987 106.757 122.508C110.604 122.151 114.245 121.201 118.012 120.592C120.611 120.17 122.844 120.625 125.398 121.063C128.077 121.526 130.779 122.005 133.516 122.305C145.71 107.679 164.064 94.8867 175.972 80.0899C179.51 75.6825 173.327 70.5041 166.675 72.3709C166.618 72.3871 166.56 72.4034 166.503 72.4196C131.042 82.2327 105.955 109.067 67.0368 109.951C61.3118 110.771 69.2924 100.203 61.2774 100.219C46.3924 101.064 37.2782 110.82 24.7061 117.338C24.3626 117.459 23.9733 117.565 23.584 117.654L23.5954 121.217C25.5648 120.868 27.5915 120.803 29.6868 121.071Z" fill="#12645F" fill-opacity="0.17"/>
<path opacity="0.34" d="M352.658 134.691C352.164 122.563 356.741 110.265 365.138 101.471C374.164 92.0245 387.437 86.8093 400.468 87.5623C400.544 88.0561 400.589 88.564 400.65 89.0574C400.746 89.8796 400.812 90.7158 400.849 91.5363C400.885 92.3569 400.906 93.1919 400.898 94.0111C400.898 94.026 400.898 94.026 400.897 94.0409C400.889 94.8602 400.866 95.679 400.814 96.497C400.813 96.5268 400.812 96.5417 400.812 96.5715C400.759 97.3746 400.692 98.1773 400.595 98.9643C400.594 99.009 400.578 99.0532 400.577 99.0979C400.481 99.87 400.37 100.642 400.228 101.427C400.211 101.501 400.209 101.576 400.193 101.635C400.053 102.376 399.912 103.132 399.743 103.872C399.725 103.976 399.692 104.079 399.675 104.168C399.506 104.879 399.322 105.589 399.124 106.284C399.09 106.417 399.042 106.549 399.008 106.683C398.811 107.348 398.613 108.013 398.386 108.677C398.321 108.854 398.257 109.016 398.208 109.193C397.982 109.813 397.756 110.432 397.515 111.036C397.435 111.243 397.34 111.449 397.259 111.655C397.02 112.229 396.781 112.789 396.527 113.348C396.415 113.598 396.289 113.833 396.178 114.083C395.925 114.597 395.687 115.112 395.42 115.626C395.278 115.905 395.121 116.184 394.964 116.463C394.713 116.933 394.461 117.387 394.195 117.842C394.007 118.164 393.805 118.472 393.603 118.779C393.353 119.189 393.103 119.584 392.839 119.979C392.605 120.345 392.342 120.695 392.094 121.046C391.861 121.382 391.628 121.733 391.38 122.069C391.07 122.492 390.731 122.9 390.406 123.308C390.206 123.556 390.005 123.818 389.804 124.081C389.264 124.736 388.695 125.376 388.126 125.986C378.724 136.077 366.618 138.465 352.866 137.378C352.757 136.496 352.693 135.6 352.658 134.691Z" fill="#135C99"/>
<path d="M351.522 132.17C350.173 119.185 354.783 105.68 363.81 96.2338C372.836 86.7871 386.109 81.572 399.14 82.3249C401.201 95.9715 396.184 110.671 386.783 120.763C377.38 130.884 365.274 133.271 351.522 132.17Z" fill="#48B059"/>
<path d="M379.635 113.157C388.353 105.162 395.46 95.0655 399.321 83.8349C400.813 97.0483 395.846 111.064 386.782 120.793C377.38 130.884 365.274 133.271 351.522 132.185C351.428 131.289 351.364 130.378 351.33 129.468C361.861 126.396 371.606 120.531 379.635 113.157Z" fill="#168828"/>
<path d="M351.457 131.943C346.471 125.899 344.293 117.617 345.67 109.898C347.046 102.179 351.95 95.1655 358.715 91.2159C364.276 97.3541 366.648 106.368 365.298 114.534C363.957 122.716 358.697 127.928 351.457 131.943Z" fill="#6AD67B"/>
<path d="M359.2 113.105C360.903 106.214 361.105 98.8069 359.307 91.9106C364.439 98.0212 366.609 106.677 365.307 114.55C363.957 122.716 358.697 127.928 351.462 131.951C351.117 131.534 350.783 131.099 350.464 130.656C354.709 125.624 357.633 119.457 359.2 113.105Z" fill="#23A438"/>
<path d="M40.4253 103.537C38.8504 102.801 37.0738 102.616 35.381 103.012C33.6882 103.407 32.1775 104.36 31.0915 105.717C30.1152 106.924 29.4714 108.433 29.1978 110.13C27.6441 109.388 26.0368 109.06 24.4907 109.181C22.7566 109.303 21.1139 110.004 19.8265 111.172C18.5391 112.34 17.6817 113.907 17.392 115.621C17.0847 117.425 17.4098 119.308 18.3317 121.065C19.6584 123.594 22.6221 125.577 27.1415 126.963C30.8237 128.091 34.7184 128.554 36.7116 128.729C37.4132 128.79 38.1176 128.648 38.7412 128.321C39.3649 127.993 39.8818 127.494 40.2307 126.883C41.218 125.144 43.0518 121.675 44.2163 118.005C45.6453 113.5 45.6972 109.933 44.3705 107.404C43.4486 105.647 42.0844 104.31 40.4253 103.537Z" fill="#FE5A59"/>
<path d="M26.7021 128.397L26.7018 128.397C22.0382 126.967 18.6066 124.818 17.0034 121.762C15.9425 119.74 15.546 117.526 15.9133 115.369C16.2594 113.324 17.2825 111.455 18.8186 110.061C20.3537 108.669 22.3121 107.832 24.3797 107.685C25.6345 107.588 26.903 107.74 28.1414 108.114C28.5378 106.885 29.1323 105.755 29.9228 104.777C31.2188 103.159 33.0208 102.023 35.0398 101.551C37.0598 101.079 39.1798 101.3 41.0594 102.178L26.7021 128.397ZM26.7021 128.397C30.5319 129.57 34.5472 130.044 36.5801 130.223L36.5825 130.223M26.7021 128.397L36.5825 130.223M36.5825 130.223C37.5697 130.309 38.5607 130.109 39.4381 129.649C40.3156 129.189 41.0428 128.486 41.5337 127.626L41.5351 127.623M36.5825 130.223L41.5351 127.623M41.5351 127.623C42.5417 125.85 44.4349 122.276 45.6461 118.458L44.2163 118.005M41.5351 127.623L44.2163 118.005M44.2163 118.005L45.6461 118.458C47.1208 113.809 47.3019 109.763 45.6988 106.707M44.2163 118.005L45.6988 106.707M45.6988 106.707C44.6382 104.686 43.0423 103.101 41.0602 102.178L45.6988 106.707Z" stroke="white" stroke-opacity="0.9" stroke-width="3"/>
<path d="M363.977 12.9388C363.44 11.2937 362.365 9.87704 360.925 8.91632C359.486 7.95561 357.765 7.50665 356.04 7.64156C354.498 7.75362 352.964 8.31278 351.545 9.26941C351.027 7.63514 350.171 6.24432 349.031 5.20296C347.762 4.02622 346.134 3.31019 344.409 3.16991C342.684 3.02964 340.962 3.47325 339.519 4.42949C337.999 5.43418 336.853 6.95178 336.204 8.81761C335.27 11.5028 335.846 15.0058 337.915 19.2325C339.602 22.6757 341.917 25.8203 343.146 27.3878C343.58 27.9389 344.162 28.3542 344.824 28.5846C345.487 28.815 346.201 28.8508 346.883 28.6879C348.818 28.2215 352.586 27.1932 356.046 25.5406C360.292 23.5125 362.919 21.1225 363.853 18.4373C364.502 16.5715 364.545 14.67 363.977 12.9388Z" fill="#FE5A59"/>
<path d="M336.568 19.8921L336.568 19.8924C338.323 23.4742 340.712 26.7146 341.966 28.3134L341.967 28.3153C342.578 29.0916 343.399 29.6767 344.332 30.0013C345.264 30.3258 346.271 30.3764 347.232 30.1468L347.234 30.1461C349.208 29.6706 353.094 28.6133 356.693 26.8941L356.046 25.5406L356.693 26.8941C361.075 24.8008 364.14 22.1773 365.27 18.9302C366.017 16.782 366.082 14.5424 365.403 12.4721C364.761 10.5076 363.477 8.81593 361.758 7.66866C360.04 6.52197 357.986 5.9857 355.927 6.14581C354.679 6.23704 353.455 6.57319 352.293 7.12092C351.722 5.96814 350.97 4.94407 350.046 4.09926C348.531 2.69605 346.589 1.84224 344.53 1.67485C342.471 1.50736 340.415 2.03681 338.692 3.17817C336.874 4.37985 335.535 6.1762 334.787 8.32471C333.657 11.5719 334.433 15.53 336.568 19.8921Z" stroke="white" stroke-opacity="0.9" stroke-width="3"/>
</svg>
