<svg width="19" height="27" viewBox="0 0 19 27" fill="none" xmlns="http://www.w3.org/2000/svg">
<g clip-path="url(#clip0_80_3067)">
<path d="M3.4873 20.4348C5.14711 23.1003 7.02875 25.2206 8.23828 26.4636C8.58605 26.8211 9.04324 26.9997 9.50012 26.9997C9.04294 26.9997 8.58605 26.8208 8.23828 26.4636C7.02875 25.2206 5.14711 23.1006 3.4873 20.4348Z" fill="white"/>
<path d="M19 9.71673C19 4.35018 14.7468 0.000307433 9.50012 0V3.52072C12.8456 3.52072 15.5577 6.29469 15.5577 9.71642C15.5577 13.1382 12.8456 15.9121 9.50012 15.9121V26.9997C9.957 26.9997 10.4139 26.8211 10.7617 26.4635C13.3461 23.8073 19 17.1468 19 9.71673Z" fill="white"/>
<path d="M3.4801 20.423C3.47959 20.422 3.47907 20.421 3.47803 20.42C3.47855 20.421 3.47959 20.422 3.4801 20.423Z" fill="white"/>
<path d="M9.49985 0C9.50015 0 9.50015 0 9.49985 0C4.25322 0 0 4.35018 0 9.71673C0 13.6632 1.59518 17.3927 3.47802 20.42C1.59518 17.3924 0 13.6632 0 9.71673C0 4.35018 4.25322 0 9.49985 0Z" fill="white"/>
<path d="M9.49985 15.9124C6.15439 15.9124 3.44225 13.1385 3.44225 9.71673C3.44225 6.295 6.15439 3.52103 9.49985 3.52103V0C4.25322 0 0 4.35018 0 9.71673C0 13.6632 1.59518 17.3927 3.47802 20.4203C3.47832 20.4209 3.47862 20.4215 3.47922 20.4222C3.48193 20.4265 3.48463 20.4308 3.48734 20.4351C5.14714 23.1008 7.02908 25.2209 8.23831 26.4641C8.58609 26.8214 9.04297 27.0003 9.50015 27.0003L9.49985 15.9124C9.50015 15.9124 9.50015 15.9124 9.49985 15.9124Z" fill="white"/>
<path d="M14.598 9.71669C14.598 12.5964 12.3157 14.9308 9.50012 14.9308V15.9124C12.8456 15.9124 15.5577 13.1384 15.5577 9.71669C15.5577 6.29496 12.8456 3.521 9.50012 3.521V4.50263C12.3157 4.50263 14.598 6.83697 14.598 9.71669Z" fill="white"/>
<path d="M3.44226 9.71669C3.44226 13.1384 6.1544 15.9124 9.49986 15.9124V14.9308C6.68432 14.9308 4.40201 12.5964 4.40201 9.71669C4.40201 6.83697 6.68432 4.50263 9.49986 4.50263V3.521C6.1544 3.52069 3.44226 6.29466 3.44226 9.71669Z" fill="white"/>
</g>
<defs>
<clipPath id="clip0_80_3067">
<rect width="19" height="27" fill="white"/>
</clipPath>
</defs>
</svg>
