<svg width="427" height="78" viewBox="0 0 427 78" fill="none" xmlns="http://www.w3.org/2000/svg">
<path d="M426.97 0H405.538H392.718H0V78H392.708H405.528H415.985C416.084 77.5395 415.726 76.8223 415.646 76.3467C415.516 75.5993 415.686 74.5424 415.098 73.9611C414.569 73.4477 413.832 73.2741 413.443 72.6551C413.273 72.3908 413.283 72.0587 413.124 71.8095C412.954 71.5453 412.576 71.2509 412.326 71.0168C411.708 70.428 411.549 69.7108 411.469 68.9559C411.389 68.1934 411.738 67.212 410.891 66.6307C410.452 66.3287 409.755 66.2305 409.356 65.8833C408.608 65.2189 408.997 64.5848 408.947 63.7317C408.967 63.9129 408.877 64.0563 408.688 64.162C407.92 64.1847 407.9 63.0372 407.601 62.6748C407.462 62.5012 407.123 62.4332 407.023 62.2596C406.804 61.8972 406.943 61.5499 406.694 61.1725C406.475 60.8403 406.325 60.5383 406.136 60.1609C406.006 59.9117 405.787 59.421 405.518 58.9832V54.5668C406.196 54.212 407.043 53.8571 407.532 53.7137C406.963 53.3815 407.412 53.306 407.472 52.989C407.561 52.5209 407.452 52.1812 407.801 51.7886C408.259 51.2677 408.887 51.1998 409.595 50.9959C410.392 50.7695 410.492 50.475 410.841 49.8711C411.24 49.1765 411.469 48.5348 411.499 47.7724C411.519 47.0929 411.26 46.7154 411.09 46.0813C410.801 45.0168 411.29 44.4733 412.117 43.6957C412.586 43.2503 413.144 42.752 413.194 42.1556C413.373 40.2004 410.542 40.6911 409.286 39.6341C409.027 39.4152 408.867 39.0151 408.728 38.7433C408.658 38.5395 408.568 38.3357 408.469 38.1394C408.309 37.9808 408.12 37.8449 407.9 37.7393C407.631 37.0825 408.977 37.007 409.216 36.554C409.435 36.1312 409.037 35.9501 408.937 35.6028C408.827 35.1876 408.997 34.7799 408.329 34.5459C407.94 34.41 407.402 34.561 406.983 34.5157C407.163 33.5192 408.14 32.7793 409.276 32.3792C409.854 32.1754 410.711 32.1905 411.24 31.9715C411.728 31.7677 411.938 31.4129 412.197 31.0505C412.735 30.3031 413.373 29.4501 413.682 28.6196C413.881 28.0836 413.722 27.7967 414.649 27.5552C415.068 27.4419 415.377 27.5099 415.785 27.4495C416.264 27.2985 416.752 27.1852 417.261 27.1022C417.689 27.1324 418.108 27.0947 418.517 26.9814C418.626 26.4077 418.547 25.6905 418.537 25.1167C418.567 24.5203 418.467 23.939 418.238 23.3728C418.088 23.1161 417.978 22.8519 417.909 22.5801C417.869 21.2213 419.713 20.2927 419.703 18.9866C419.693 18.1185 418.776 17.1974 418.288 16.4501C417.859 15.7857 417.719 15.8008 416.822 15.529C416.224 15.3479 415.197 15.1742 414.689 14.9024C413.712 14.3891 414.091 13.4907 413.991 12.7584C413.144 12.6603 412.167 12.9849 411.349 12.6829C410.821 12.4866 410.652 12.1469 410.392 11.8072C410.373 11.6789 410.323 11.5505 410.243 11.4373C410.024 11.2108 409.764 11.0221 409.475 10.856C409.117 10.3577 409.326 9.92741 409.475 9.36876C411.011 8.96864 412.735 9.22532 414.3 9.33856C414.4 9.05923 414.729 8.8403 414.819 8.56098C414.968 8.11556 414.669 7.82114 414.619 7.39082C414.569 7.00581 414.809 6.22822 415.317 6.00174C415.756 5.80546 416.493 5.94135 416.952 5.9489C419.205 6.00174 420.221 3.55575 421.467 2.4158C422.275 1.67596 422.414 1.85714 423.651 1.88734C424.677 1.90999 425.963 2.00058 427 1.87224C427 1.26829 426.97 0.634146 426.97 0Z" fill="white"/>
</svg>
