<svg width="81" height="46" viewBox="0 0 81 46" fill="none" xmlns="http://www.w3.org/2000/svg">
<g clip-path="url(#clip0_228_2046)">
<path d="M68.1616 46C67.7722 46 67.3042 45.9369 66.9094 45.8306C63.6537 44.9595 54.8489 42.9321 43.4644 42.9321C32.1563 42.9321 23.376 44.9395 20.1255 45.8022C19.7106 45.9127 19.284 45.9684 18.8564 45.9684C18.3215 45.9684 17.7782 45.8759 17.2412 45.6949C16.5716 45.4676 15.209 45.031 14.5267 44.8185C12.8128 44.283 11.5065 42.9532 11.0311 41.2614C11.0215 41.2288 10.1121 37.9916 9.74281 36.6397C9.42763 35.4855 9.5433 34.2472 10.0559 33.1625C9.56665 31.1573 8.85459 28.2399 8.32293 26.0515C7.25855 25.3551 6.48918 24.2788 6.18144 23.0384C6.13687 22.8606 5.75059 21.2909 4.89527 17.8064C4.26492 15.2383 5.66039 12.5723 8.14146 11.6055C16.9388 7.9253 33.0445 4.57864 43.4506 4.86586C59.3686 4.86586 72.5794 9.12783 77.5214 10.9605C80.03 11.8916 81.4669 14.545 80.8631 17.1331C79.5578 22.7312 77.9119 29.7822 77.1478 33.0352C77.6752 34.1231 77.7962 35.3393 77.4864 36.5124C77.1945 37.616 76.179 41.252 76.1694 41.2877C75.6887 43.01 74.3123 44.3851 72.5751 44.8816C72.4 44.9342 70.8815 45.3919 69.7555 45.7422C69.2854 45.8885 68.689 45.9895 68.238 46C68.2115 46 68.1871 46 68.1616 46Z" fill="white"/>
<path d="M77.3824 12.7522C72.4637 10.9279 59.3113 6.6849 43.4612 6.6849C33.1379 6.39453 17.0375 9.74119 8.31231 13.3961C6.81178 13.9811 5.96813 15.5928 6.35016 17.1457C7.10467 20.2188 7.61617 22.3019 7.65755 22.4661C7.85812 23.2793 8.40039 23.9716 9.13474 24.363C9.28437 24.445 9.44142 24.5134 9.60166 24.5681C10.2214 27.1194 11.2582 31.3698 11.809 33.6265C11.7538 33.718 11.6912 33.819 11.6232 33.9306C11.185 34.6344 11.0566 35.4866 11.2709 36.2704C11.6445 37.637 12.5688 40.929 12.5783 40.9626C12.868 41.9926 13.6777 42.7691 14.6689 43.0794C15.3746 43.3004 16.7838 43.7517 17.4842 43.9884C17.7782 44.0884 18.0891 44.1494 18.4117 44.1494C18.6537 44.1494 18.8956 44.1178 19.1312 44.0558C22.526 43.1541 31.6936 41.0584 43.4729 41.0584C55.3339 41.0584 64.527 43.1762 67.9282 44.0863C68.1648 44.1494 68.4704 44.1862 68.653 44.182C68.8896 44.1767 69.2865 44.1126 69.5847 44.02C70.821 43.636 72.4924 43.1331 72.4924 43.1331C73.5164 42.8459 74.3495 42.0463 74.6434 40.9942C74.6859 40.8417 75.6876 37.253 75.9773 36.1599C76.1843 35.3772 76.0601 34.5565 75.6271 33.8517C75.6208 33.8411 75.6187 33.838 75.4191 33.5255C76.1079 30.6092 78.1814 21.7201 79.4018 16.4871C79.7679 14.9195 78.8988 13.3151 77.3824 12.7522Z" fill="#007167"/>
<path d="M74.2349 33.7222C74.7941 31.3677 77.1553 21.2446 78.3226 16.2367C78.5635 15.2036 77.9957 14.1526 76.994 13.7812C71.7219 11.8254 58.9483 7.78327 43.4612 7.78327C27.6887 7.78327 14.3389 12.2283 8.7177 14.4187C7.72548 14.8048 7.17472 15.859 7.42728 16.8858C7.98229 19.1457 8.70496 22.0873 8.73361 22.202C8.85884 22.7144 9.20266 23.152 9.66959 23.4003C9.93064 23.5423 10.2225 23.6213 10.5164 23.6297C10.5621 23.819 10.6077 24.0084 10.6533 24.1978C11.3113 26.9079 12.4765 31.6833 12.9964 33.8106C12.8956 33.9747 12.7587 34.1988 12.5709 34.5061C12.2918 34.9532 12.208 35.4897 12.3427 35.9842C12.7195 37.3624 13.648 40.6681 13.648 40.6681C13.9409 41.7117 15.0276 42.3282 16.0835 42.0473C20.2338 40.9458 30.4149 38.6639 43.5461 38.6639C56.8153 38.6639 67.0728 40.9942 71.1383 42.0821C72.1963 42.3651 73.2861 41.7475 73.579 40.7007C73.579 40.7007 74.618 36.9795 74.9087 35.8811C75.0403 35.3856 74.9554 34.8659 74.6827 34.4208C74.6774 34.4135 74.2349 33.7222 74.2349 33.7222Z" fill="#AEE6DE"/>
<path d="M52.0336 29.3835C52.006 29.3835 51.9476 29.3782 51.9476 29.3782C49.5461 29.1583 46.8698 29.0563 43.9855 29.0605C39.9943 29.0668 36.9253 29.2783 36.3555 29.3204C36.3555 29.3204 36.3067 29.3225 36.2812 29.3214C35.8599 29.3172 35.5044 29.0058 35.4598 28.5923C35.2964 27.1173 35.1638 25.7612 35.0269 24.4398C34.7955 22.1399 34.579 19.9611 34.3095 17.4666C34.1036 17.4845 33.9168 17.4992 33.8022 17.5129C33.7662 17.5171 33.7333 17.5181 33.6982 17.5181C33.3035 17.5129 32.9618 17.2183 32.913 16.8133C32.8079 15.9947 32.4439 12.5786 32.3282 11.697C32.3176 11.6149 32.3219 11.5139 32.3325 11.454C32.3664 11.2478 32.4895 10.5439 32.5468 10.2357C32.5659 10.1336 32.6243 9.96528 32.7092 9.85165C32.8461 9.6749 33.0414 9.55918 33.2589 9.53919C35.3739 9.32982 39.5889 8.94792 42.0127 8.94687C42.4446 8.94792 42.7948 9.3172 42.798 9.7738C42.798 10.6397 42.8648 14.1683 42.8648 15.0468C42.8648 15.091 42.8648 16.0021 42.8648 16.2157C42.8648 16.6607 42.5083 17.0226 42.0647 17.03C42.0647 17.03 41.7686 17.0352 41.602 17.0363C41.6275 18.223 41.6562 19.7948 41.6731 20.3998C42.1061 20.3893 42.6887 20.3903 43.4156 20.3893C44.0916 20.3893 44.9013 20.3935 45.5147 20.3987C45.5359 19.7875 45.556 18.2157 45.5751 17.031C45.4266 17.0279 45.2759 17.0279 45.1125 17.0268C44.897 17.0279 44.6869 16.9416 44.5352 16.787C44.3834 16.6312 44.3017 16.424 44.2964 16.2041C44.2858 15.737 44.2677 15.1215 44.2677 15.0352C44.2752 14.181 44.2837 13.3193 44.2943 12.4524C44.3081 11.555 44.3166 10.6544 44.3208 9.76959C44.3229 9.5476 44.4089 9.33614 44.5606 9.18253C44.6997 9.03103 44.897 8.94371 45.0997 8.94371C45.1061 8.94371 45.1135 8.94371 45.1199 8.94371C46.7626 8.97527 50.602 9.03419 53.8641 9.50447C54.0711 9.53077 54.261 9.65281 54.3916 9.8264C54.4733 9.94108 54.5231 10.1105 54.5444 10.2115C54.5889 10.4271 54.7853 11.4266 54.7853 11.4266C54.7969 11.5045 54.798 11.5834 54.7884 11.6612C54.7322 12.061 54.6823 12.5755 54.6218 13.2215C54.5369 14.1694 54.4213 15.3467 54.2239 16.7859C54.1676 17.1846 53.8344 17.4771 53.445 17.4834C53.4015 17.4845 53.0736 17.4508 52.9038 17.4403C52.787 18.5345 52.7085 19.3214 52.6257 20.1862C52.6056 20.3756 52.5854 20.5681 52.5642 20.768C52.5727 20.7691 52.5812 20.7691 52.5907 20.7701C52.8083 20.7975 53.012 20.9058 53.1521 21.0826C53.2338 21.1878 53.2943 21.3403 53.3134 21.435C53.3463 21.5939 53.5203 22.5008 53.5203 22.5008C53.5415 22.6155 53.5543 22.7101 53.5384 22.8175C53.4163 23.7412 52.9589 27.8411 52.8507 28.6786C52.7966 29.0794 52.4453 29.3782 52.0336 29.3835ZM73.0484 33.9211C74.0184 29.8401 76.5122 19.3109 77.0852 16.6554C77.1287 16.4419 77.0863 16.2283 76.9802 16.0515L76.2384 14.8038C76.1418 14.6723 76.0081 14.5671 75.8468 14.5071C68.3993 11.8211 59.6042 10.2483 57.0944 9.899C57.0944 9.899 57.0127 9.89163 56.9734 9.89163C56.601 9.90005 56.2869 10.1862 56.2264 10.5892C56.0842 11.6128 55.6236 15.0552 55.5292 15.7275C55.5175 15.8254 55.5217 15.9463 55.5387 16.0179C55.6597 16.5302 55.8751 17.415 55.9494 17.5118C56.0736 17.676 56.3304 17.7685 56.5649 17.8232C56.0513 21.1731 54.8532 28.3325 54.555 30.1852C54.4658 30.1757 54.364 30.162 54.2398 30.1525C54.2037 30.1452 54.1666 30.1441 54.1326 30.1452C53.7294 30.1525 53.3866 30.4471 53.3335 30.8532C53.2221 31.6823 52.6406 35.212 52.5239 36.1063C52.509 36.2052 52.5154 36.3051 52.5387 36.4019L52.734 37.3403C52.7616 37.4624 52.8178 37.5792 52.8985 37.6791C53.0438 37.8559 53.254 37.9663 53.4906 37.9905C54.7704 38.1273 59.1022 38.5713 60.8532 38.8522C60.9084 38.8585 60.9635 38.8659 61.0219 38.8648C61.4103 38.8543 61.7509 38.5881 61.8327 38.2178C62.0226 37.3109 62.7697 33.9274 62.9257 33.1762C62.9628 32.9953 62.9331 32.8069 62.8482 32.6418C62.8482 32.6418 62.4153 31.5823 62.393 31.5497C62.3229 31.4477 62.2327 31.3645 62.1298 31.3014C62.8068 27.5602 63.52 23.5308 64.3159 19.1468C65.2073 19.3551 66.6632 19.6917 67.7775 19.9495C66.8468 24.0757 66.0212 27.8716 65.1394 31.8169C65.0237 31.7927 64.9144 31.7717 64.8284 31.7517C64.7573 31.7359 64.6873 31.7296 64.6141 31.7328C64.4655 31.738 64.3244 31.7812 64.1991 31.859C64.0155 31.98 63.885 32.1662 63.8415 32.3766C63.6876 33.1499 62.9055 36.5481 62.723 37.4434C62.6912 37.5939 62.705 37.7475 62.757 37.8895L63.1698 38.8364C63.1931 38.8974 63.2239 38.9553 63.2621 39.01C63.3894 39.1962 63.5889 39.3225 63.8182 39.3666C67.6257 40.1105 70.2702 40.6554 71.4248 40.9889C71.4248 40.9889 71.6233 41.0321 71.7241 41.0279C71.8472 41.0226 71.9756 40.9889 72.0912 40.9311C72.2865 40.8227 72.4414 40.6491 72.4956 40.4387C73.1132 38.3009 73.4284 37.1562 73.8337 35.6086C73.8889 35.3929 73.8475 35.172 73.735 34.99L73.0484 33.9211ZM51.8245 30.5934C51.8012 30.4555 51.7449 30.3209 51.6547 30.2073C51.5178 30.0337 51.3088 29.9211 51.0891 29.8937C49.4082 29.7075 47.255 29.6265 44.6922 29.6339C40.6066 29.6476 36.7534 29.8695 35.5288 29.9537C32.393 27.6654 29.3123 25.354 26.2858 23.0205C27.4414 21.3519 28.5843 19.6812 29.7113 18.0074C29.7739 17.9989 30.6707 17.8737 30.6707 17.8737C30.9275 17.8327 31.0909 17.738 31.2278 17.5592C31.301 17.4624 31.353 17.3498 31.3795 17.2309L31.6162 16.0558C31.6342 15.9653 31.6385 15.8727 31.6268 15.7812C31.4994 14.828 31.0092 11.4129 30.9084 10.6502C30.8553 10.2525 30.5348 9.95897 30.156 9.95055C30.1167 9.9495 30.0838 9.9516 30.0435 9.95581C27.1517 10.323 23.4768 11.1678 21.7067 11.5655C21.642 11.5792 21.5136 11.6065 21.5136 11.6065C21.2674 11.6654 21.1188 11.7875 21.001 11.9737C20.9713 12.0231 20.4842 13.2962 20.4842 13.2962C20.4153 13.455 20.394 13.6307 20.4322 13.8001C20.6137 14.6691 21.1995 17.94 21.3618 18.7101C21.4011 18.9027 21.5072 19.0626 21.6505 19.1741C21.0467 20.1473 20.4397 21.1205 19.8274 22.0915C19.6682 21.3614 19.527 20.7259 19.3625 19.9905C19.5578 19.8969 19.7064 19.7359 19.7849 19.5465L20.2423 18.4366C20.2423 18.4366 20.3505 18.2136 20.2964 17.9348C20.1871 17.3751 19.5461 14.1378 19.3265 13.0237C19.2798 12.8048 19.1524 12.6176 18.9657 12.5018C18.8542 12.4324 18.729 12.3966 18.5996 12.3914C18.5189 12.3882 18.434 12.3935 18.3565 12.4198C14.7708 13.4382 11.7814 14.4682 9.90411 15.1562C9.71628 15.2257 9.56559 15.3582 9.46796 15.5224H9.4669L8.76333 16.7091V16.7101C8.65827 16.8932 8.62113 17.112 8.67419 17.3256C8.90128 18.2188 9.64094 21.2846 9.8086 21.9369C9.85954 22.1504 10.0049 22.3303 10.2023 22.4356C10.3063 22.4924 10.4252 22.526 10.5461 22.5292C10.7308 22.5334 11.1733 22.3872 11.3431 22.3325C11.4704 22.868 11.5999 23.4035 11.7283 23.9379C12.4382 26.8595 13.7361 32.1789 14.1797 33.9958C14.1531 34.0284 13.5122 35.0784 13.5122 35.0784C13.3933 35.2656 13.353 35.4929 13.4124 35.7033C13.5992 36.4471 13.8178 37.212 14.0332 37.9495C14.2731 38.7943 14.5299 39.6665 14.7453 40.5124C14.8355 40.8669 15.1634 41.1057 15.5327 41.1205C15.6144 41.1236 15.7035 41.112 15.7863 41.0952C18.6176 40.4093 21.5826 39.8169 23.1754 39.4855C23.2656 39.4676 23.3558 39.4498 23.446 39.4319C23.6721 39.3856 23.8684 39.253 23.9947 39.07C24.0297 39.0205 24.451 37.9926 24.451 37.9926C24.5157 37.839 24.5306 37.6696 24.4956 37.5034C24.3056 36.6081 23.532 33.232 23.359 32.4387C23.2752 32.0684 22.9536 31.8138 22.5865 31.8022C22.5196 31.8001 22.4528 31.8043 22.3785 31.8211C22.3201 31.8327 22.2034 31.858 22.0675 31.8906C21.9031 31.1636 21.7173 30.3987 21.5422 29.6549C21.4849 29.4192 21.4287 29.1846 21.3735 28.9532C21.5104 28.9227 21.6484 28.8911 21.7821 28.8606C23.1043 29.9716 31.1153 36.0663 33.1061 37.8138C33.26 37.9474 33.4605 38.0263 33.6696 38.0295C33.7067 38.0295 33.78 38.0231 33.78 38.0231C36.4308 37.7391 40.4071 37.5686 44.1531 37.5602C46.6098 37.556 48.7789 37.6255 50.428 37.777C50.428 37.777 50.4895 37.7822 50.5182 37.7822C50.9416 37.778 51.2971 37.475 51.3512 37.071C51.3703 36.9321 51.9986 31.9369 52.0113 31.8422C52.023 31.7601 52.0208 31.677 52.006 31.5949C52.0071 31.596 51.868 30.8438 51.8245 30.5934Z" fill="#005246"/>
<path d="M75.8468 14.5071C68.3993 11.8211 59.6042 10.2483 57.0944 9.899C57.0944 9.899 57.0127 9.89163 56.9735 9.89163C56.601 9.90005 56.2869 10.1862 56.2264 10.5892C56.0842 11.6128 55.6236 15.0552 55.5292 15.7275C55.5016 15.9527 55.5546 16.1788 55.6841 16.3556C55.9048 16.6554 56.55 16.7196 56.7241 16.748C56.3696 19.2646 54.8903 28.0968 54.5539 30.1852C54.4648 30.1757 54.3629 30.162 54.2388 30.1525C54.2027 30.1452 54.1655 30.1441 54.1316 30.1452C53.7283 30.1525 53.3856 30.4471 53.3325 30.8532C53.2211 31.6823 52.6395 35.212 52.5228 36.1063C52.4899 36.324 52.5568 36.5513 52.6947 36.7259C52.8369 36.9048 53.0428 37.0163 53.2752 37.0405C54.5295 37.1783 58.7732 37.6276 60.4892 37.9106C60.5433 37.9169 60.5974 37.9253 60.6547 37.9232C61.0357 37.9127 61.3689 37.6433 61.4485 37.2688C61.6342 36.3524 62.3665 32.9353 62.5193 32.1767C62.5617 31.9611 62.5161 31.7338 62.3919 31.5487C62.2646 31.3614 62.0704 31.2372 61.8486 31.1888C61.7934 31.1825 61.699 31.1646 61.5865 31.1426C62.2943 27.1226 63.0403 22.7722 63.8787 18.0063C64.9643 18.2683 66.902 18.7291 67.9908 18.99C66.9699 23.4929 66.0849 27.5676 65.1351 31.8159C65.0194 31.7917 64.9101 31.7706 64.8242 31.7507C64.7531 31.7349 64.683 31.7286 64.6098 31.7317C64.4613 31.737 64.3201 31.7801 64.1949 31.858C64.0113 31.979 63.8808 32.1652 63.8373 32.3756C63.6834 33.1489 62.9013 36.5471 62.7188 37.4424C62.6721 37.6591 62.7198 37.8853 62.8451 38.0684C62.9703 38.2567 63.1655 38.384 63.3905 38.4282C67.1217 39.1794 69.711 39.7296 70.8433 40.0673C70.8433 40.0673 71.0375 40.1115 71.1372 40.1063C71.2582 40.101 71.3834 40.0673 71.497 40.0084C71.688 39.899 71.8408 39.7233 71.8939 39.5118C72.4987 37.353 72.8076 36.1967 73.2044 34.6333C73.3095 34.2083 73.0548 33.7622 72.6303 33.6286C72.537 33.6013 72.4181 33.5613 72.2992 33.5234C73.1238 29.9484 75.8001 18.3125 76.3912 15.4897C76.4761 15.0731 76.2437 14.6544 75.8468 14.5071ZM51.6547 30.2062C51.7948 30.3851 51.8574 30.6113 51.8277 30.8301C51.7089 31.7454 51.5964 32.7101 51.4839 33.6391C51.3873 34.4671 51.2908 35.294 51.1814 36.1115C51.1284 36.5197 50.7782 36.8196 50.3633 36.8248C50.3357 36.8248 50.3049 36.8259 50.2773 36.8259C48.6622 36.6733 46.5366 36.6028 44.1298 36.607C40.4591 36.6155 36.5645 36.788 33.9667 37.0752C33.9667 37.0752 33.8956 37.0826 33.8596 37.0815C33.6547 37.0784 33.4584 36.9984 33.3077 36.8638C31.3583 35.0984 23.5097 28.9427 22.214 27.8201C21.8649 27.9022 21.4913 27.9874 21.1708 28.0652C21.2897 28.5818 21.4149 29.1152 21.5465 29.657C21.7205 30.3998 21.9073 31.1657 22.0718 31.8927C22.2076 31.859 22.3244 31.8348 22.3827 31.8232C22.457 31.8064 22.5239 31.8022 22.5907 31.8043C22.9579 31.8159 23.2794 32.0715 23.3633 32.4408C23.5362 33.2351 24.3099 36.6102 24.4998 37.5055C24.5465 37.7222 24.5072 37.9463 24.381 38.1315C24.2568 38.3177 24.0647 38.4503 23.8429 38.4976C23.7548 38.5155 23.6657 38.5334 23.5776 38.5513C22.0177 38.8858 19.1121 39.4845 16.3382 40.1767C16.2564 40.1936 16.1694 40.2051 16.0898 40.202C15.728 40.1873 15.4075 39.9453 15.3183 39.5876C15.1072 38.7333 14.8546 37.8527 14.6201 36.9995C14.4089 36.2546 14.1945 35.4824 14.011 34.7312C13.9526 34.5187 13.9918 34.2893 14.1086 34.0999C14.2221 33.9064 14.4131 33.7706 14.6296 33.7107C14.7326 33.6865 14.913 33.6412 14.913 33.6412C14.913 33.6412 13.2087 26.444 12.3608 22.8469C12.2345 22.3061 12.1082 21.7654 11.983 21.2246C11.8164 21.2804 11.3824 21.4277 11.202 21.4235C11.0831 21.4203 10.9674 21.3866 10.8656 21.3288C10.6724 21.2225 10.5302 21.0416 10.4804 20.8259C10.3169 20.1662 9.59107 17.071 9.36928 16.1683C9.26847 15.7485 9.50087 15.3067 9.90625 15.1573C11.7835 14.4692 14.7718 13.4392 18.3587 12.4208C18.4372 12.3956 18.521 12.3893 18.6017 12.3924C18.7322 12.3977 18.8564 12.4335 18.9678 12.5029C19.1546 12.6186 19.2819 12.8059 19.3286 13.0247C19.5493 14.1389 20.185 17.3772 20.2985 17.9358C20.3877 18.3672 20.1181 18.8006 19.6894 18.9185C19.6894 18.9185 19.2416 19.0405 19.1567 19.0605C19.4209 20.2388 19.6077 21.0731 19.8295 22.0915C20.6562 20.7806 21.4743 19.4676 22.2851 18.1536C22.0453 18.0589 21.8542 17.8453 21.7991 17.5655C21.6399 16.788 21.0658 13.4834 20.8886 12.606C20.8408 12.3882 20.8854 12.162 21.0021 11.9716C21.1199 11.7854 21.3024 11.6518 21.5147 11.6044C21.5794 11.5907 21.6431 11.5771 21.7078 11.5634C23.4779 11.1657 27.1539 10.3209 30.0446 9.9537C30.0849 9.9495 30.1178 9.94739 30.157 9.94844C30.5359 9.95686 30.8564 10.2504 30.9094 10.6481C31.0102 11.4108 31.5005 14.8248 31.6279 15.7791C31.6565 15.9989 31.5939 16.2272 31.4644 16.4019C31.3307 16.5828 31.1705 16.6786 30.919 16.7196C30.919 16.7196 30.0414 16.8459 29.9798 16.8543C28.6799 18.8448 27.3597 20.8322 26.0205 22.8143C29.1319 25.2172 32.3017 27.597 35.5299 29.9516C36.7545 29.8685 40.6077 29.6454 44.6933 29.6318C47.2561 29.6244 49.4093 29.7054 51.0902 29.8916C51.3088 29.9211 51.5179 30.0337 51.6547 30.2062ZM52.648 27.6349C52.7552 26.7891 53.202 22.6481 53.3219 21.7149C53.3527 21.4897 53.2922 21.2646 53.151 21.0826C53.0099 20.9058 52.8072 20.7964 52.5897 20.7701C52.4708 20.7628 52.3668 20.7522 52.2543 20.7407C52.3212 20.1031 52.3742 19.5697 52.4284 19.0573C52.509 18.1841 52.5865 17.3898 52.7011 16.2841C52.8677 16.2946 53.1892 16.3282 53.2317 16.3272C53.6127 16.3209 53.9395 16.0252 53.9947 15.6223C54.1878 14.1683 54.3014 12.9795 54.3841 12.0221C54.4436 11.3698 54.4924 10.8511 54.5476 10.4471C54.5741 10.2304 54.5189 10.0042 54.3916 9.8264C54.2621 9.65281 54.0711 9.53077 53.8642 9.50447C50.602 9.03419 46.7626 8.97527 45.1199 8.94371C45.1135 8.94371 45.1061 8.94371 45.0997 8.94371C44.897 8.94476 44.6997 9.03208 44.5607 9.18253C44.41 9.33613 44.3229 9.54655 44.3208 9.76959C44.3166 10.6544 44.3091 11.555 44.2943 12.4524C44.2837 13.3193 44.2741 14.181 44.2678 15.0352C44.2688 15.2572 44.3527 15.4666 44.5012 15.6234C44.6498 15.7801 44.8557 15.8664 45.0668 15.8653C45.2557 15.8664 45.4277 15.8653 45.5985 15.8716C45.5709 16.7817 45.5433 19.5392 45.5136 20.3977C44.9002 20.3924 44.0916 20.3872 43.4146 20.3882C42.6876 20.3893 42.1061 20.3882 41.6721 20.3987C41.6477 19.5508 41.602 16.7901 41.5734 15.8748C41.7145 15.8748 42.0806 15.8685 42.0806 15.8685C42.5147 15.8611 42.8649 15.495 42.8638 15.0458C42.8638 14.1673 42.7969 10.6386 42.7969 9.77275C42.7938 9.31615 42.4436 8.94687 42.0117 8.94581C39.5879 8.94687 35.3728 9.32877 33.2579 9.53813C33.0392 9.55918 32.844 9.67385 32.7082 9.8506C32.5744 10.0295 32.5129 10.2514 32.5415 10.4818C32.6551 11.3719 33.0127 14.8227 33.1146 15.6486C33.1623 16.0579 33.4977 16.3545 33.884 16.3609C33.919 16.3609 33.9508 16.3598 33.9858 16.3556C34.0983 16.3419 34.2819 16.3272 34.4825 16.3093C34.7467 18.829 34.9579 21.0289 35.185 23.353C35.3187 24.6881 35.4492 26.0579 35.6084 27.5476C35.6519 27.9653 36.001 28.2788 36.4128 28.2841C36.4372 28.2841 36.485 28.283 36.485 28.283C37.0431 28.2399 40.0495 28.0273 43.96 28.02C46.786 28.0158 49.4071 28.1189 51.7609 28.3409C51.7609 28.3409 51.8182 28.3472 51.8447 28.3461C52.2522 28.3409 52.595 28.0389 52.648 27.6349ZM51.6547 30.2062C51.7948 30.3851 51.8574 30.6113 51.8277 30.8301C51.7089 31.7454 51.2897 35.2941 51.1804 36.1105C51.1273 36.5187 50.7793 36.8248 50.3643 36.829C50.3367 36.829 50.2762 36.8238 50.2762 36.8238C48.6611 36.6712 46.5355 36.6007 44.1287 36.6049C40.4581 36.6134 36.5635 36.7859 33.9657 37.0731C33.9657 37.0731 33.8946 37.0805 33.8585 37.0794C33.6537 37.0763 33.4574 36.9963 33.3067 36.8616C31.3573 35.0963 23.5087 28.9406 22.2129 27.818C21.8638 27.9 21.4903 27.9853 21.1698 28.0631C21.2886 28.5797 21.4139 29.1131 21.5454 29.6549C21.7195 30.3977 21.9062 31.1636 22.0707 31.8906C22.2066 31.8569 22.3233 31.8327 22.3817 31.8211C22.4559 31.8043 22.5228 31.8001 22.5897 31.8022C22.9568 31.8138 23.2784 32.0694 23.3622 32.4387C23.5352 33.233 24.3088 36.6081 24.4987 37.5034C24.5454 37.7201 24.5062 37.9442 24.3799 38.1294C24.2557 38.3156 24.0637 38.4482 23.8419 38.4955C23.7538 38.5134 23.6646 38.5313 23.5766 38.5492C22.0166 38.8837 19.1111 39.4824 16.3371 40.1746C16.2554 40.1915 16.1684 40.203 16.0888 40.1999C15.7269 40.1852 15.4064 39.9432 15.3173 39.5855C15.1061 38.7312 14.8535 37.8506 14.619 36.9974C14.4078 36.2525 14.1935 35.4803 14.0099 34.7291C13.9515 34.5166 13.9908 34.2872 14.1075 34.0978C14.2211 33.9043 14.4121 33.7685 14.6286 33.7086C14.7315 33.6844 14.9119 33.6391 14.9119 33.6391C14.9119 33.6391 13.2076 26.4419 12.3597 22.8448C12.2334 22.304 12.1072 21.7633 11.9819 21.2225C11.8153 21.2783 11.3813 21.4256 11.2009 21.4214C11.0821 21.4182 10.9664 21.3845 10.8645 21.3267C10.6714 21.2204 10.5292 21.0394 10.4793 20.8238C10.3159 20.1641 9.59001 17.0689 9.36822 16.1662C9.26741 15.7464 9.49981 15.3046 9.90518 15.1552C11.7824 14.4671 14.7708 13.4371 18.3576 12.4187C18.4361 12.3935 18.52 12.3872 18.6006 12.3903C18.7311 12.3956 18.8553 12.4313 18.9667 12.5008C19.1535 12.6165 19.2808 12.8038 19.3275 13.0226C19.5483 14.1368 20.1839 17.3751 20.2975 17.9337C20.3866 18.3651 20.1171 18.7985 19.6883 18.9164C19.6883 18.9164 19.2405 19.0384 19.1556 19.0584C19.4199 20.2367 19.6066 21.071 19.8284 22.0894C20.6551 20.7785 21.4733 19.4655 22.284 18.1515C22.0442 18.0568 21.8532 17.8432 21.798 17.5634C21.6388 16.7859 21.0647 13.4813 20.8875 12.6039C20.8397 12.3861 20.8843 12.1599 21.001 11.9695C21.1188 11.7833 21.3014 11.6497 21.5136 11.6023C21.5783 11.5886 21.642 11.575 21.7067 11.5613C23.4768 11.1636 27.1528 10.3188 30.0435 9.9516C30.0838 9.94739 30.1167 9.94529 30.156 9.94634C30.5348 9.95476 30.8553 10.2483 30.9084 10.646C31.0092 11.4087 31.4995 14.8227 31.6268 15.777C31.6555 15.9968 31.5928 16.2251 31.4634 16.3998C31.3297 16.5807 31.1694 16.6765 30.9179 16.7175C30.9179 16.7175 30.0403 16.8438 29.9788 16.8522C28.6788 18.8427 27.3587 20.8301 26.0194 22.8122C29.1309 25.2151 32.3007 27.5949 35.5288 29.9495C36.7534 29.8664 40.6066 29.6433 44.6922 29.6297C47.255 29.6223 49.4082 29.7033 51.0891 29.8895C51.3088 29.9211 51.5179 30.0337 51.6547 30.2062Z" fill="#00A19B"/>
<path d="M15 34.6155C15.1793 35.3172 15.382 36.0326 15.5762 36.7333C15.8065 37.5413 16.0474 38.3787 16.2532 39.2036C18.9731 38.526 21.8097 37.939 23.3431 37.6086C23.3962 37.5981 23.4492 37.5876 23.5023 37.5781C23.3314 36.7691 23.1362 35.9263 22.9324 35.0373C22.7722 34.324 22.6013 33.5865 22.4379 32.7964C22.1174 32.868 21.4945 32.9942 21.4605 32.9995C21.4138 33.01 21.3682 33.0205 21.3215 33.0321C21.312 32.9879 21.3024 32.9427 21.2939 32.8985C21.0859 31.9516 20.8355 30.8932 20.5903 29.8706C20.4015 29.0658 20.2104 28.2357 20.0438 27.4887C20.0343 27.4424 20.0247 27.3961 20.0141 27.3509C20.0587 27.3393 20.1033 27.3288 20.1489 27.3172C20.3813 27.2551 21.5985 26.9763 22.4252 26.7848C22.4474 26.7785 22.4697 26.7733 22.492 26.767C22.5101 26.7827 22.527 26.7996 22.5451 26.8154C23.9013 28.0084 25.4527 29.2488 27.1125 30.5513C29.4768 32.4177 31.9642 34.324 33.9275 36.1084C36.5613 35.819 40.4527 35.6433 44.1192 35.6349C46.4931 35.6307 48.5974 35.7033 50.2211 35.8453C50.3261 35.0594 50.4259 34.2493 50.5203 33.4624C50.6254 32.5955 50.7326 31.7002 50.8461 30.8406C49.2225 30.6712 47.1553 30.5976 44.7103 30.6039C40.5567 30.6186 36.2971 30.8574 35.2985 30.9437C35.2805 30.9448 35.2624 30.9469 35.2444 30.9479C31.665 28.3409 28.1567 25.7044 24.7184 23.0384C26.3197 20.6828 27.8935 18.3209 29.4397 15.9527C29.4619 15.9505 29.4842 15.9474 29.5065 15.9453C29.6668 15.9221 29.8673 15.8895 30.0721 15.8622C30.2801 15.8338 30.4934 15.8012 30.6781 15.7759C30.556 14.8574 30.4244 13.9274 30.3014 13.0289C30.2027 12.3451 30.1029 11.637 30.0095 10.9342C27.1825 11.3004 23.6169 12.1189 21.8808 12.5092C21.8617 12.5134 21.8426 12.5176 21.8235 12.5218C22.0028 13.3793 22.1524 14.2535 22.301 15.0942C22.4241 15.7854 22.5514 16.5039 22.6947 17.2099C23.2837 17.0784 23.845 16.9669 23.8493 16.9669C23.9522 16.9448 24.0552 16.9237 24.1581 16.9016C22.5971 19.4655 21.0063 22.0242 19.3859 24.5765C19.3615 24.465 19.3371 24.3535 19.3116 24.242C18.851 22.0831 18.6346 21.1268 18.2165 19.2141C18.1528 18.9279 18.0902 18.6418 18.0276 18.3556C18.0743 18.3451 18.1209 18.3346 18.1676 18.323C18.3438 18.2851 18.8542 18.1462 19.1928 18.0568C19.249 18.041 19.2999 18.0263 19.3466 18.0147C19.249 17.5329 19.1577 17.0636 19.0654 16.5913C18.8542 15.5055 18.6579 14.4745 18.4393 13.3908C15.018 14.3693 12.1613 15.3498 10.3201 16.0221C10.5292 16.8701 10.7234 17.7191 10.9176 18.5397C11.0661 19.1636 11.2157 19.7864 11.3707 20.4177C11.8673 20.2483 12.5391 20.0305 12.5391 20.0305C12.5868 20.0147 12.6346 19.9979 12.6823 19.9821C12.6919 20.0305 12.7025 20.0779 12.712 20.1262C12.9105 20.99 13.111 21.8306 13.3052 22.6523C14.2168 26.4829 15.1072 30.0978 16.0559 34.2052C16.0665 34.2514 16.0781 34.2988 16.0888 34.3451C16.041 34.3556 15.9932 34.3661 15.9455 34.3766C15.9423 34.3798 15.5412 34.4734 15 34.6155ZM43.9462 27.0531C46.7531 27.0489 49.3594 27.1478 51.7088 27.3677C51.8086 26.5713 51.9105 25.6507 52.0113 24.7638C52.1217 23.7201 52.2405 22.646 52.3604 21.7233C52.1917 21.7075 52.0315 21.697 51.8765 21.6833C51.7078 21.6696 51.5391 21.6591 51.3502 21.6412C51.3013 21.637 51.2536 21.6339 51.2048 21.6297C51.2101 21.5823 51.2154 21.535 51.2207 21.4866C51.3311 20.4524 51.4085 19.6812 51.4807 18.969C51.5889 17.8769 51.6813 16.9353 51.851 15.3793C51.8542 15.333 51.8585 15.2856 51.8617 15.2393C51.9084 15.2457 51.954 15.2509 52.0007 15.2572C52.1482 15.2741 52.387 15.2941 52.6172 15.3067C52.7891 15.3214 52.9579 15.3309 53.0863 15.3414C53.2635 13.9821 53.3728 12.849 53.4566 11.9348C53.515 11.3351 53.5617 10.848 53.6105 10.4471C50.5161 10.0126 46.7934 9.9495 45.2398 9.92319C45.2377 10.7733 45.2292 11.6486 45.2228 12.4934C45.2133 13.2877 45.2037 14.101 45.2027 14.8995C45.4489 14.9006 45.6675 14.9048 45.8946 14.9121C46.0665 14.9153 46.2405 14.9174 46.4294 14.9195C46.4761 14.9195 46.5238 14.9195 46.5705 14.9206C46.5684 14.97 46.5663 15.0195 46.5642 15.0679C46.5111 16.3924 46.5069 17.2772 46.4994 18.2146C46.4931 19.0794 46.4835 19.9769 46.4389 21.2499C46.4347 21.2983 46.4305 21.3467 46.4273 21.3951C46.3806 21.3919 46.3339 21.3887 46.2872 21.3856C45.9137 21.3656 44.5861 21.3582 43.4315 21.3593C42.0753 21.3603 41.0375 21.3698 40.9165 21.3919C40.8656 21.3993 40.8146 21.4066 40.7626 21.414C40.7594 21.3614 40.7573 21.3088 40.7541 21.2562C40.7053 19.9926 40.6968 19.0963 40.6862 18.2294C40.6745 17.2877 40.6618 16.3977 40.6045 15.0742C40.6024 15.0268 40.6003 14.9795 40.5981 14.9321C40.6448 14.93 40.6915 14.9279 40.7371 14.9258C40.9579 14.9174 41.6095 14.9069 41.931 14.9058C41.9299 14.0821 41.9183 13.2372 41.9055 12.4177C41.8907 11.5981 41.8726 10.7512 41.8748 9.9253C39.5136 9.93687 35.5766 10.2872 33.4754 10.4903C33.5858 11.3551 33.6791 12.2304 33.7662 13.0773C33.8457 13.8338 33.9264 14.6144 34.0272 15.3824C34.3169 15.3551 34.7838 15.3151 35.0534 15.2909C35.1404 15.2835 35.2285 15.2762 35.3155 15.2688C35.3197 15.314 35.3229 15.3603 35.3272 15.4056C35.6349 18.2157 35.8694 20.5997 36.1231 23.1226C36.26 24.4566 36.3979 25.819 36.5571 27.3067C37.3795 27.2425 40.2925 27.0594 43.9462 27.0531ZM63.7184 37.5097C66.2334 38.0189 69.451 38.6754 70.9749 39.1026C70.9929 39.0426 71.0099 38.9837 71.0279 38.9237C71.532 37.0889 71.845 35.9674 72.2143 34.506C71.8355 34.3903 71.2752 34.2262 71.272 34.2209C71.2264 34.2094 71.1818 34.1967 71.1362 34.1852C71.1457 34.1399 71.1553 34.0957 71.1648 34.0505C72.0732 30.1462 72.8935 26.708 73.735 23.0689C74.2932 20.6449 74.8609 18.1389 75.4478 15.3761C68.2497 12.7964 59.7686 11.2614 57.1284 10.8743C56.9957 11.8138 56.8684 12.7764 56.7474 13.7065C56.6625 14.3861 56.5723 15.0647 56.4789 15.738C56.9575 15.8033 57.642 15.8969 57.6515 15.9C57.6972 15.9074 57.7439 15.9137 57.7895 15.9211C57.7842 15.9684 57.7789 16.0147 57.7725 16.0621C57.3947 18.8911 56.9554 21.6191 56.5182 24.2641C56.15 26.4703 55.7647 28.7585 55.4029 31.111C55.3954 31.1552 55.388 31.1994 55.3795 31.2446C55.3339 31.2393 55.2893 31.2341 55.2437 31.2288C54.9879 31.2025 54.8256 31.1846 54.6537 31.1689C54.5422 31.1583 54.4298 31.1447 54.278 31.132C54.174 31.9264 54.0403 32.7533 53.9087 33.5518C53.7761 34.3924 53.6349 35.2593 53.5214 36.0915C54.902 36.2441 58.7425 36.6512 60.5019 36.9321C60.6866 36.0316 60.8914 35.0973 61.0888 34.1967C61.2352 33.5108 61.3901 32.8048 61.5313 32.1126C61.2087 32.061 60.6133 31.9674 60.6059 31.9663C60.5571 31.959 60.5093 31.9516 60.4605 31.9442C60.468 31.8958 60.4764 31.8464 60.4839 31.798C61.2798 27.3056 62.134 22.4103 63.0987 16.9795C63.1071 16.9342 63.1156 16.8879 63.1241 16.8427C63.1708 16.8511 63.2175 16.8585 63.2642 16.8669C63.5146 16.929 68.7676 18.1831 69 18.2399C69.0435 18.2514 69.0881 18.263 69.1316 18.2746C69.1209 18.3209 69.1093 18.3661 69.0987 18.4124C67.9738 23.4245 67.0421 27.7759 65.9214 32.8164C65.914 32.8585 65.9055 32.8995 65.8981 32.9416C65.8535 32.9363 65.81 32.93 65.7654 32.9248C65.6264 32.8995 65.1202 32.7996 64.7722 32.7301C64.6236 33.4634 64.4496 34.2251 64.2851 34.9679C64.0866 35.8075 63.8914 36.6733 63.7184 37.5097Z" fill="white"/>
<path d="M8.45136 13.919C8.10011 13.919 7.83268 13.7254 7.73612 13.4014C7.68412 13.2267 7.6353 13.1952 7.08879 13.1394C6.31942 13.0605 4.17793 12.3893 2.71242 11.1973C0.463742 9.36665 -0.705696 5.02367 1.13548 2.56181C1.80509 1.66649 3.09975 0.705947 4.72232 0.696479H4.74673C5.96073 0.696479 6.90095 1.21515 7.47718 1.65071C7.54192 1.69911 7.61938 1.72541 7.70004 1.72541C7.80403 1.72541 7.90378 1.68228 7.97382 1.60653C8.19667 1.36665 8.44606 1.15413 8.71242 0.977383C9.45844 0.482907 10.4093 0.210419 11.3898 0.210419C12.5476 0.210419 13.6141 0.584958 14.393 1.2646C14.8716 1.68122 15.1146 2.11678 15.2589 2.3777C16.7308 5.01526 15.3109 8.11363 15.0117 8.70805C14.9745 8.78064 14.0906 10.5103 12.2366 11.9221C12.0191 12.0873 11.7973 12.2388 11.7878 12.2451C11.6233 12.3567 11.4323 12.4734 10.9356 12.7659C10.2586 13.1647 9.53378 13.5771 8.77503 13.8632C8.67527 13.899 8.56385 13.919 8.45136 13.919Z" fill="#ED2224"/>
<path d="M11.3893 0.420831C12.4272 0.420831 13.4725 0.741715 14.2524 1.42241C14.6992 1.81168 14.9274 2.21778 15.0738 2.4787C16.5361 5.09942 15.0059 8.24829 14.8223 8.61336C14.8223 8.61336 13.9436 10.3567 12.1078 11.7538C11.8923 11.9179 11.6684 12.0694 11.6684 12.0694C11.5061 12.1799 11.3076 12.2998 10.828 12.5818C10.101 13.0089 9.42294 13.3908 8.70027 13.6633C8.62917 13.6896 8.54215 13.7075 8.45195 13.7075C8.24608 13.7075 8.02217 13.617 7.93939 13.3403C7.84282 13.0174 7.63377 12.9826 7.1106 12.9279C6.42719 12.8574 4.3239 12.2336 2.84672 11.0321C0.7031 9.28985 -0.497112 5.09732 1.30586 2.68701C1.92029 1.86533 3.1343 0.915308 4.72291 0.906891C4.73034 0.906891 4.73883 0.906891 4.74626 0.906891C5.9263 0.906891 6.8315 1.42767 7.34725 1.81799C7.4523 1.8969 7.5754 1.93582 7.69956 1.93582C7.85768 1.93582 8.0158 1.87165 8.13041 1.74855C8.31506 1.54971 8.5464 1.34035 8.8308 1.15203C9.55241 0.67333 10.4682 0.420831 11.3893 0.420831ZM11.3893 0C10.3674 0 9.37519 0.285113 8.59521 0.801683C8.314 0.988953 8.05188 1.21094 7.81842 1.46344C7.77703 1.50763 7.72715 1.51394 7.70062 1.51394C7.67622 1.51394 7.64014 1.50868 7.60618 1.48238C7.00342 1.02788 6.01863 0.48606 4.74626 0.48606H4.72079C3.01969 0.495529 1.6656 1.50026 0.964154 2.43661C0.0536483 3.65387 -0.224385 5.34561 0.180992 7.19937C0.549227 8.88269 1.44488 10.4377 2.57611 11.3593C4.09468 12.5955 6.24891 13.2646 7.06497 13.3488C7.2008 13.3624 7.44806 13.3877 7.51598 13.4214C7.51916 13.4277 7.52447 13.4403 7.53083 13.4613C7.65393 13.8738 8.00625 14.1294 8.44983 14.1294C8.58672 14.1294 8.72574 14.1042 8.8499 14.0579C9.62457 13.7654 10.3579 13.3477 11.0434 12.9448C11.5453 12.6491 11.7385 12.5313 11.9072 12.4177V12.4166C12.0303 12.3367 12.2977 12.1389 12.3656 12.0873C13.3536 11.3351 14.0689 10.4861 14.4955 9.90742C14.7374 9.57917 14.9146 9.29932 15.0197 9.12257C15.1173 8.95844 15.1736 8.8606 15.2043 8.79327C15.5206 8.16307 16.9606 4.99316 15.4431 2.27564C15.2914 2.00316 15.0377 1.54866 14.5315 1.10679C13.7144 0.392425 12.5991 0 11.3893 0Z" fill="white"/>
<path d="M7.87723 9.32246C8.63387 9.25828 9.24299 8.92478 9.70673 8.32194C10.1599 7.73803 10.3541 7.06365 10.2872 6.29879C10.2214 5.53814 9.91473 4.91215 9.36397 4.41978C8.80472 3.91373 8.14996 3.69385 7.39757 3.75697C6.642 3.82115 6.02969 4.14939 5.56277 4.74171C5.10857 5.32141 4.91438 5.99474 4.98017 6.7596C5.04596 7.52446 5.35265 8.15465 5.89916 8.64913C6.45841 9.16255 7.11742 9.38769 7.87723 9.32246ZM6.4478 5.48027C6.7078 5.12572 7.05693 4.93109 7.4952 4.89427C7.93454 4.85744 8.3102 4.99211 8.62325 5.30142C8.92357 5.59285 9.09442 5.96212 9.13263 6.40926C9.17083 6.84797 9.06577 7.2404 8.81957 7.58548C8.56064 7.95055 8.21363 8.1515 7.77854 8.18832C7.3477 8.22514 6.97203 8.08522 6.65049 7.76959C6.34487 7.4708 6.17295 7.10258 6.13475 6.66386C6.09761 6.21568 6.20161 5.82115 6.4478 5.48027Z" fill="white"/>
<path d="M10.6639 9.46975C7.76369 11.4687 5.31021 10.0305 5.20197 9.96528C4.96214 9.81799 4.64909 9.89268 4.50158 10.1326C4.35407 10.3735 4.42942 10.6881 4.66925 10.8364C4.75308 10.8869 6.09125 11.6907 7.9961 11.5287C8.96285 11.4466 10.076 11.1163 11.2423 10.3114C11.4747 10.1515 11.5331 9.83377 11.3728 9.60021C11.2147 9.3698 10.8963 9.31089 10.6639 9.46975Z" fill="white"/>
<path d="M4.20763 7.79063C4.1291 7.02893 4.07286 6.45765 4.03996 6.07575C3.96568 5.21936 3.91368 4.19042 3.88078 2.99V2.92688C3.87972 2.87533 3.85001 2.85113 3.79164 2.85639C3.73434 2.86165 3.64626 2.87322 3.52847 2.89321C3.41067 2.9132 3.32153 2.92583 3.25998 2.93003C3.20268 2.93529 3.11566 2.9374 2.99999 2.9374C2.88432 2.9374 2.7973 2.9395 2.73894 2.94476C2.67208 2.95002 2.64131 2.98579 2.64661 3.04892C2.67633 3.39295 2.73787 3.91057 2.83126 4.60284C2.92465 5.2951 2.98619 5.81378 3.01591 6.16096C3.0488 6.54287 3.0955 7.1152 3.15386 7.87796C3.21329 8.64071 3.25892 9.21094 3.29182 9.58969C3.29819 9.66438 3.33002 9.69805 3.38839 9.69384L4.30632 9.61599C4.35726 9.61178 4.38061 9.57285 4.37424 9.49816C4.34134 9.12151 4.28616 8.55129 4.20763 7.79063Z" fill="white"/>
<path d="M12.919 2.78274C13.0718 2.75749 13.2257 2.72909 13.3817 2.69963C13.439 2.68911 13.4655 2.66386 13.4623 2.62493C13.4612 2.61546 13.423 2.4808 13.3477 2.21988C13.2723 1.96002 13.232 1.8264 13.2288 1.82009C13.2129 1.78537 13.1885 1.76959 13.1567 1.77275C12.8235 1.80115 12.5062 1.88953 12.2069 2.03787C11.8726 2.202 11.6264 2.41031 11.4673 2.66281C11.2879 2.94266 11.2232 3.3677 11.272 3.93582C11.2826 4.06417 11.3028 4.2304 11.3293 4.43451C10.9239 4.49237 10.7255 4.55339 10.7308 4.62178C10.7372 4.69226 10.7488 4.79747 10.7679 4.93635C10.786 5.07522 10.7987 5.18043 10.8051 5.25092C10.8146 5.36033 10.8242 5.41925 10.8348 5.42767C10.8486 5.44555 10.9621 5.4445 11.1733 5.42346C11.3686 5.40347 11.4704 5.43714 11.4779 5.52341L11.7633 8.8364C11.7718 8.93529 11.8175 8.98159 11.9013 8.97527L12.78 8.90058C12.8447 8.89531 12.8723 8.84902 12.8649 8.76275C12.8457 8.53761 12.8075 8.19779 12.7524 7.74434C12.6972 7.28984 12.66 6.95002 12.6399 6.72593L12.5157 5.28669C12.625 5.27722 12.7938 5.2688 13.0219 5.26039C13.2501 5.25197 13.4209 5.24355 13.5323 5.23408C13.596 5.22882 13.6257 5.19516 13.6204 5.13414C13.613 5.04787 13.5981 4.91531 13.5769 4.73856C13.5557 4.56075 13.5408 4.42714 13.5323 4.33666C13.527 4.2788 13.4867 4.2525 13.4092 4.25986C13.2946 4.26933 13.1217 4.2809 12.8946 4.29458C12.6664 4.3072 12.4998 4.31878 12.3937 4.32719C12.3343 3.63387 12.3746 3.19516 12.5178 3.0121C12.6049 2.89952 12.7386 2.82272 12.919 2.78274Z" fill="white"/>
</g>
<defs>
<clipPath id="clip0_228_2046">
<rect width="81" height="46" fill="white"/>
</clipPath>
</defs>
</svg>
